<?xml version="1.0" encoding="UTF-8" standalone="no"?>
<!-- Created with Inkscape (http://www.inkscape.org/) -->

<svg
   xmlns:ns0="http://www.iki.fi/pav/software/textext/"
   xmlns:dc="http://purl.org/dc/elements/1.1/"
   xmlns:cc="http://creativecommons.org/ns#"
   xmlns:rdf="http://www.w3.org/1999/02/22-rdf-syntax-ns#"
   xmlns:svg="http://www.w3.org/2000/svg"
   xmlns="http://www.w3.org/2000/svg"
   xmlns:xlink="http://www.w3.org/1999/xlink"
   xmlns:sodipodi="http://sodipodi.sourceforge.net/DTD/sodipodi-0.dtd"
   xmlns:inkscape="http://www.inkscape.org/namespaces/inkscape"
   width="78.150253mm"
   height="82.269005mm"
   viewBox="0 0 78.150256 82.269003"
   version="1.1"
   id="svg8"
   inkscape:version="0.92.1 unknown"
   sodipodi:docname="colapso.svg">
  <sodipodi:namedview
     id="base"
     pagecolor="#ffffff"
     bordercolor="#666666"
     borderopacity="1.0"
     inkscape:pageopacity="0.0"
     inkscape:pageshadow="2"
     inkscape:zoom="2.0177316"
     inkscape:cx="138.45722"
     inkscape:cy="179.93191"
     inkscape:document-units="mm"
     inkscape:current-layer="layer1"
     showgrid="false"
     inkscape:window-width="1920"
     inkscape:window-height="1056"
     inkscape:window-x="1366"
     inkscape:window-y="24"
     inkscape:window-maximized="1"
     fit-margin-top="0"
     fit-margin-left="0"
     fit-margin-right="0"
     fit-margin-bottom="0" />
  <defs
     id="defs2">
    <marker
       inkscape:stockid="Arrow2Mend"
       orient="auto"
       refY="0"
       refX="0"
       id="marker15597"
       style="overflow:visible"
       inkscape:isstock="true">
      <path
         inkscape:connector-curvature="0"
         id="path15595"
         style="fill:#ff0000;fill-opacity:0.78431373;fill-rule:evenodd;stroke:none;stroke-width:0.625;stroke-linejoin:round;stroke-opacity:0.19607843"
         d="M 8.7185878,4.0337352 -2.2072895,0.01601326 8.7185884,-4.0017078 c -1.7454984,2.3720609 -1.7354408,5.6174519 -6e-7,8.035443 z"
         transform="scale(-0.6)" />
    </marker>
    <marker
       inkscape:isstock="true"
       style="overflow:visible"
       id="marker15147"
       refX="0"
       refY="0"
       orient="auto"
       inkscape:stockid="Arrow2Mend"
       inkscape:collect="always">
      <path
         transform="scale(-0.6)"
         d="M 8.7185878,4.0337352 -2.2072895,0.01601326 8.7185884,-4.0017078 c -1.7454984,2.3720609 -1.7354408,5.6174519 -6e-7,8.035443 z"
         style="fill:#ff0000;fill-opacity:0.58823529;fill-rule:evenodd;stroke:none;stroke-width:0.625;stroke-linejoin:round;stroke-opacity:0.19607843"
         id="path15145"
         inkscape:connector-curvature="0" />
    </marker>
    <marker
       inkscape:stockid="Arrow2Mend"
       orient="auto"
       refY="0"
       refX="0"
       id="marker14733"
       style="overflow:visible"
       inkscape:isstock="true"
       inkscape:collect="always">
      <path
         inkscape:connector-curvature="0"
         id="path14731"
         style="fill:#ff0000;fill-opacity:0.39215686;fill-rule:evenodd;stroke:none;stroke-width:0.625;stroke-linejoin:round;stroke-opacity:0.19607843"
         d="M 8.7185878,4.0337352 -2.2072895,0.01601326 8.7185884,-4.0017078 c -1.7454984,2.3720609 -1.7354408,5.6174519 -6e-7,8.035443 z"
         transform="scale(-0.6)" />
    </marker>
    <marker
       inkscape:isstock="true"
       style="overflow:visible"
       id="marker14289"
       refX="0"
       refY="0"
       orient="auto"
       inkscape:stockid="Arrow2Mend">
      <path
         transform="scale(-0.6)"
         d="M 8.7185878,4.0337352 -2.2072895,0.01601326 8.7185884,-4.0017078 c -1.7454984,2.3720609 -1.7354408,5.6174519 -6e-7,8.035443 z"
         style="fill:#ff0000;fill-opacity:0.78431373;fill-rule:evenodd;stroke:none;stroke-width:0.625;stroke-linejoin:round;stroke-opacity:0.19607843"
         id="path14287"
         inkscape:connector-curvature="0" />
    </marker>
    <marker
       inkscape:stockid="Arrow2Mend"
       orient="auto"
       refY="0"
       refX="0"
       id="marker13857"
       style="overflow:visible"
       inkscape:isstock="true"
       inkscape:collect="always">
      <path
         inkscape:connector-curvature="0"
         id="path13855"
         style="fill:#ff0000;fill-opacity:0.58823529;fill-rule:evenodd;stroke:none;stroke-width:0.625;stroke-linejoin:round;stroke-opacity:0.19607843"
         d="M 8.7185878,4.0337352 -2.2072895,0.01601326 8.7185884,-4.0017078 c -1.7454984,2.3720609 -1.7354408,5.6174519 -6e-7,8.035443 z"
         transform="scale(-0.6)" />
    </marker>
    <marker
       inkscape:isstock="true"
       style="overflow:visible"
       id="marker13335"
       refX="0"
       refY="0"
       orient="auto"
       inkscape:stockid="Arrow2Mend"
       inkscape:collect="always">
      <path
         transform="scale(-0.6)"
         d="M 8.7185878,4.0337352 -2.2072895,0.01601326 8.7185884,-4.0017078 c -1.7454984,2.3720609 -1.7354408,5.6174519 -6e-7,8.035443 z"
         style="fill:#ff0000;fill-opacity:0.39215686;fill-rule:evenodd;stroke:none;stroke-width:0.625;stroke-linejoin:round;stroke-opacity:0.19607843"
         id="path13333"
         inkscape:connector-curvature="0" />
    </marker>
    <marker
       inkscape:isstock="true"
       style="overflow:visible"
       id="marker12939"
       refX="0"
       refY="0"
       orient="auto"
       inkscape:stockid="Arrow2Mend">
      <path
         transform="scale(-0.6)"
         d="M 8.7185878,4.0337352 -2.2072895,0.01601326 8.7185884,-4.0017078 c -1.7454984,2.3720609 -1.7354408,5.6174519 -6e-7,8.035443 z"
         style="fill:#ff0000;fill-opacity:0.78431373;fill-rule:evenodd;stroke:none;stroke-width:0.625;stroke-linejoin:round;stroke-opacity:0.19607843"
         id="path12937"
         inkscape:connector-curvature="0" />
    </marker>
    <marker
       inkscape:stockid="Arrow2Mend"
       orient="auto"
       refY="0"
       refX="0"
       id="marker12549"
       style="overflow:visible"
       inkscape:isstock="true"
       inkscape:collect="always">
      <path
         inkscape:connector-curvature="0"
         id="path12547"
         style="fill:#ff0000;fill-opacity:0.58823529;fill-rule:evenodd;stroke:none;stroke-width:0.625;stroke-linejoin:round;stroke-opacity:0.19607843"
         d="M 8.7185878,4.0337352 -2.2072895,0.01601326 8.7185884,-4.0017078 c -1.7454984,2.3720609 -1.7354408,5.6174519 -6e-7,8.035443 z"
         transform="scale(-0.6)" />
    </marker>
    <marker
       inkscape:isstock="true"
       style="overflow:visible"
       id="marker12099"
       refX="0"
       refY="0"
       orient="auto"
       inkscape:stockid="Arrow2Mend"
       inkscape:collect="always">
      <path
         transform="scale(-0.6)"
         d="M 8.7185878,4.0337352 -2.2072895,0.01601326 8.7185884,-4.0017078 c -1.7454984,2.3720609 -1.7354408,5.6174519 -6e-7,8.035443 z"
         style="fill:#ff0000;fill-opacity:0.39215686;fill-rule:evenodd;stroke:none;stroke-width:0.625;stroke-linejoin:round;stroke-opacity:0.19607843"
         id="path12097"
         inkscape:connector-curvature="0" />
    </marker>
    <marker
       inkscape:stockid="Arrow2Mend"
       orient="auto"
       refY="0"
       refX="0"
       id="marker11703"
       style="overflow:visible"
       inkscape:isstock="true">
      <path
         inkscape:connector-curvature="0"
         id="path11701"
         style="fill:#ff0000;fill-opacity:0.78431373;fill-rule:evenodd;stroke:none;stroke-width:0.625;stroke-linejoin:round;stroke-opacity:0.19607843"
         d="M 8.7185878,4.0337352 -2.2072895,0.01601326 8.7185884,-4.0017078 c -1.7454984,2.3720609 -1.7354408,5.6174519 -6e-7,8.035443 z"
         transform="scale(-0.6)" />
    </marker>
    <marker
       inkscape:isstock="true"
       style="overflow:visible"
       id="marker11307"
       refX="0"
       refY="0"
       orient="auto"
       inkscape:stockid="Arrow2Mend"
       inkscape:collect="always">
      <path
         transform="scale(-0.6)"
         d="M 8.7185878,4.0337352 -2.2072895,0.01601326 8.7185884,-4.0017078 c -1.7454984,2.3720609 -1.7354408,5.6174519 -6e-7,8.035443 z"
         style="fill:#ff0000;fill-opacity:0.58823529;fill-rule:evenodd;stroke:none;stroke-width:0.625;stroke-linejoin:round;stroke-opacity:0.19607843"
         id="path11305"
         inkscape:connector-curvature="0" />
    </marker>
    <marker
       inkscape:stockid="Arrow2Mend"
       orient="auto"
       refY="0"
       refX="0"
       id="marker10917"
       style="overflow:visible"
       inkscape:isstock="true"
       inkscape:collect="always">
      <path
         inkscape:connector-curvature="0"
         id="path10915"
         style="fill:#ff0000;fill-opacity:0.39215686;fill-rule:evenodd;stroke:none;stroke-width:0.625;stroke-linejoin:round;stroke-opacity:0.19607843"
         d="M 8.7185878,4.0337352 -2.2072895,0.01601326 8.7185884,-4.0017078 c -1.7454984,2.3720609 -1.7354408,5.6174519 -6e-7,8.035443 z"
         transform="scale(-0.6)" />
    </marker>
    <marker
       inkscape:isstock="true"
       style="overflow:visible"
       id="marker10419"
       refX="0"
       refY="0"
       orient="auto"
       inkscape:stockid="Arrow2Mend"
       inkscape:collect="always">
      <path
         transform="scale(-0.6)"
         d="M 8.7185878,4.0337352 -2.2072895,0.01601326 8.7185884,-4.0017078 c -1.7454984,2.3720609 -1.7354408,5.6174519 -6e-7,8.035443 z"
         style="fill:#ff0000;fill-opacity:0.19607843;fill-rule:evenodd;stroke:none;stroke-width:0.625;stroke-linejoin:round;stroke-opacity:0.19607843"
         id="path10417"
         inkscape:connector-curvature="0" />
    </marker>
    <marker
       inkscape:stockid="Arrow2Mend"
       orient="auto"
       refY="0"
       refX="0"
       id="marker10029"
       style="overflow:visible"
       inkscape:isstock="true">
      <path
         inkscape:connector-curvature="0"
         id="path10027"
         style="fill:#ff0000;fill-opacity:0.19607843;fill-rule:evenodd;stroke:none;stroke-width:0.625;stroke-linejoin:round;stroke-opacity:0.19607843"
         d="M 8.7185878,4.0337352 -2.2072895,0.01601326 8.7185884,-4.0017078 c -1.7454984,2.3720609 -1.7354408,5.6174519 -6e-7,8.035443 z"
         transform="scale(-0.6)" />
    </marker>
    <marker
       inkscape:stockid="Arrow2Mend"
       orient="auto"
       refY="0"
       refX="0"
       id="marker9265"
       style="overflow:visible"
       inkscape:isstock="true"
       inkscape:collect="always">
      <path
         inkscape:connector-curvature="0"
         id="path9263"
         style="fill:#ff0000;fill-opacity:0.19607843;fill-rule:evenodd;stroke:none;stroke-width:0.625;stroke-linejoin:round;stroke-opacity:0.19607843"
         d="M 8.7185878,4.0337352 -2.2072895,0.01601326 8.7185884,-4.0017078 c -1.7454984,2.3720609 -1.7354408,5.6174519 -6e-7,8.035443 z"
         transform="scale(-0.6)" />
    </marker>
    <marker
       inkscape:isstock="true"
       style="overflow:visible"
       id="marker8373"
       refX="0"
       refY="0"
       orient="auto"
       inkscape:stockid="Arrow2Mend"
       inkscape:collect="always">
      <path
         transform="scale(-0.6)"
         d="M 8.7185878,4.0337352 -2.2072895,0.01601326 8.7185884,-4.0017078 c -1.7454984,2.3720609 -1.7354408,5.6174519 -6e-7,8.035443 z"
         style="fill:#ff0000;fill-opacity:0.19607843;fill-rule:evenodd;stroke:none;stroke-width:0.625;stroke-linejoin:round;stroke-opacity:0.19607843"
         id="path8371"
         inkscape:connector-curvature="0" />
    </marker>
    <marker
       inkscape:stockid="Arrow2Mend"
       orient="auto"
       refY="0"
       refX="0"
       id="marker7857"
       style="overflow:visible"
       inkscape:isstock="true"
       inkscape:collect="always">
      <path
         inkscape:connector-curvature="0"
         id="path7855"
         style="fill:#ff0000;fill-opacity:0.19607843;fill-rule:evenodd;stroke:none;stroke-width:0.625;stroke-linejoin:round;stroke-opacity:0.19607843"
         d="M 8.7185878,4.0337352 -2.2072895,0.01601326 8.7185884,-4.0017078 c -1.7454984,2.3720609 -1.7354408,5.6174519 -6e-7,8.035443 z"
         transform="scale(-0.6)" />
    </marker>
    <marker
       inkscape:isstock="true"
       style="overflow:visible"
       id="marker7707"
       refX="0"
       refY="0"
       orient="auto"
       inkscape:stockid="Arrow2Mend">
      <path
         inkscape:connector-curvature="0"
         transform="scale(-0.6)"
         d="M 8.7185878,4.0337352 -2.2072895,0.01601326 8.7185884,-4.0017078 c -1.7454984,2.3720609 -1.7354408,5.6174519 -6e-7,8.035443 z"
         style="fill:#ff0000;fill-opacity:0.58823529;fill-rule:evenodd;stroke:#ff0000;stroke-width:0.625;stroke-linejoin:round;stroke-opacity:0.58823529"
         id="path7705" />
    </marker>
    <linearGradient
       inkscape:collect="always"
       id="linearGradient4703">
      <stop
         style="stop-color:#ff0000;stop-opacity:1"
         offset="0"
         id="stop4699" />
      <stop
         id="stop7653"
         offset="0.5"
         style="stop-color:#f70000;stop-opacity:0.50196078;" />
      <stop
         style="stop-color:#ff0000;stop-opacity:0.00483092"
         offset="1"
         id="stop4701" />
    </linearGradient>
    <marker
       inkscape:stockid="Arrow2Mend"
       orient="auto"
       refY="0"
       refX="0"
       id="marker13601"
       style="overflow:visible"
       inkscape:isstock="true"
       inkscape:collect="always">
      <path
         id="path13599"
         style="fill:#ff0000;fill-opacity:0.58823529;fill-rule:evenodd;stroke:#ff0000;stroke-width:0.625;stroke-linejoin:round;stroke-opacity:0.58823529"
         d="M 8.7185878,4.0337352 -2.2072895,0.01601326 8.7185884,-4.0017078 c -1.7454984,2.3720609 -1.7354408,5.6174519 -6e-7,8.035443 z"
         transform="scale(-0.6)"
         inkscape:connector-curvature="0" />
    </marker>
    <marker
       inkscape:isstock="true"
       style="overflow:visible"
       id="marker11073"
       refX="0"
       refY="0"
       orient="auto"
       inkscape:stockid="Arrow2Mend">
      <path
         transform="scale(-0.6)"
         d="M 8.7185878,4.0337352 -2.2072895,0.01601326 8.7185884,-4.0017078 c -1.7454984,2.3720609 -1.7354408,5.6174519 -6e-7,8.035443 z"
         style="fill:#32b4fa;fill-opacity:1;fill-rule:evenodd;stroke:#32b4fa;stroke-width:0.625;stroke-linejoin:round;stroke-opacity:1"
         id="path11071"
         inkscape:connector-curvature="0" />
    </marker>
    <marker
       inkscape:isstock="true"
       style="overflow:visible"
       id="marker10477"
       refX="0"
       refY="0"
       orient="auto"
       inkscape:stockid="Arrow2Mend">
      <path
         transform="scale(-0.6)"
         d="M 8.7185878,4.0337352 -2.2072895,0.01601326 8.7185884,-4.0017078 c -1.7454984,2.3720609 -1.7354408,5.6174519 -6e-7,8.035443 z"
         style="fill:#32b450;fill-opacity:1;fill-rule:evenodd;stroke:#32b450;stroke-width:0.625;stroke-linejoin:round;stroke-opacity:1"
         id="path10475"
         inkscape:connector-curvature="0" />
    </marker>
    <marker
       inkscape:stockid="Arrow2Mend"
       orient="auto"
       refY="0"
       refX="0"
       id="marker9475"
       style="overflow:visible"
       inkscape:isstock="true">
      <path
         id="path9473"
         style="fill:#32b4fa;fill-opacity:1;fill-rule:evenodd;stroke:#32b4fa;stroke-width:0.625;stroke-linejoin:round;stroke-opacity:1"
         d="M 8.7185878,4.0337352 -2.2072895,0.01601326 8.7185884,-4.0017078 c -1.7454984,2.3720609 -1.7354408,5.6174519 -6e-7,8.035443 z"
         transform="scale(-0.6)"
         inkscape:connector-curvature="0" />
    </marker>
    <marker
       inkscape:isstock="true"
       style="overflow:visible"
       id="marker8341"
       refX="0"
       refY="0"
       orient="auto"
       inkscape:stockid="Arrow2Mend">
      <path
         transform="scale(-0.6)"
         d="M 8.7185878,4.0337352 -2.2072895,0.01601326 8.7185884,-4.0017078 c -1.7454984,2.3720609 -1.7354408,5.6174519 -6e-7,8.035443 z"
         style="fill:#32b450;fill-opacity:1;fill-rule:evenodd;stroke:#32b450;stroke-width:0.625;stroke-linejoin:round;stroke-opacity:1"
         id="path8339"
         inkscape:connector-curvature="0" />
    </marker>
    <marker
       inkscape:isstock="true"
       style="overflow:visible"
       id="marker7021"
       refX="0"
       refY="0"
       orient="auto"
       inkscape:stockid="Arrow2Mend">
      <path
         transform="scale(-0.6)"
         d="M 8.7185878,4.0337352 -2.2072895,0.01601326 8.7185884,-4.0017078 c -1.7454984,2.3720609 -1.7354408,5.6174519 -6e-7,8.035443 z"
         style="fill:#32b450;fill-opacity:1;fill-rule:evenodd;stroke:#32b450;stroke-width:0.625;stroke-linejoin:round;stroke-opacity:1"
         id="path7019"
         inkscape:connector-curvature="0" />
    </marker>
    <marker
       inkscape:stockid="Arrow1Lstart"
       orient="auto"
       refY="0"
       refX="0"
       id="marker6883"
       style="overflow:visible"
       inkscape:isstock="true">
      <path
         id="path6881"
         d="M 0,0 5,-5 -12.5,0 5,5 Z"
         style="fill:#f90000;fill-opacity:1;fill-rule:evenodd;stroke:#f90000;stroke-width:1.00000003pt;stroke-opacity:1"
         transform="matrix(0.8,0,0,0.8,10,0)"
         inkscape:connector-curvature="0" />
    </marker>
    <marker
       inkscape:isstock="true"
       style="overflow:visible"
       id="marker6419"
       refX="0"
       refY="0"
       orient="auto"
       inkscape:stockid="Arrow2Mend">
      <path
         transform="scale(-0.6)"
         d="M 8.7185878,4.0337352 -2.2072895,0.01601326 8.7185884,-4.0017078 c -1.7454984,2.3720609 -1.7354408,5.6174519 -6e-7,8.035443 z"
         style="fill:#ff0000;fill-opacity:1;fill-rule:evenodd;stroke:#ff0000;stroke-width:0.625;stroke-linejoin:round;stroke-opacity:1"
         id="path6417"
         inkscape:connector-curvature="0" />
    </marker>
    <marker
       inkscape:isstock="true"
       style="overflow:visible"
       id="marker6129"
       refX="0"
       refY="0"
       orient="auto"
       inkscape:stockid="Arrow2Mend">
      <path
         transform="scale(-0.6)"
         d="M 8.7185878,4.0337352 -2.2072895,0.01601326 8.7185884,-4.0017078 c -1.7454984,2.3720609 -1.7354408,5.6174519 -6e-7,8.035443 z"
         style="fill:#ff0000;fill-opacity:1;fill-rule:evenodd;stroke:#ff0000;stroke-width:0.625;stroke-linejoin:round;stroke-opacity:1"
         id="path6127"
         inkscape:connector-curvature="0" />
    </marker>
    <marker
       inkscape:isstock="true"
       style="overflow:visible"
       id="marker5451"
       refX="0"
       refY="0"
       orient="auto"
       inkscape:stockid="Arrow2Mend">
      <path
         transform="scale(-0.6)"
         d="M 8.7185878,4.0337352 -2.2072895,0.01601326 8.7185884,-4.0017078 c -1.7454984,2.3720609 -1.7354408,5.6174519 -6e-7,8.035443 z"
         style="fill:#ff0000;fill-opacity:1;fill-rule:evenodd;stroke:#ff0000;stroke-width:0.625;stroke-linejoin:round;stroke-opacity:1"
         id="path5449"
         inkscape:connector-curvature="0" />
    </marker>
    <marker
       inkscape:stockid="Arrow1Lend"
       orient="auto"
       refY="0"
       refX="0"
       id="Arrow1Lend"
       style="overflow:visible"
       inkscape:isstock="true">
      <path
         id="path4524"
         d="M 0,0 5,-5 -12.5,0 5,5 Z"
         style="fill:#f90000;fill-opacity:1;fill-rule:evenodd;stroke:#f90000;stroke-width:1.00000003pt;stroke-opacity:1"
         transform="matrix(-0.8,0,0,-0.8,-10,0)"
         inkscape:connector-curvature="0" />
    </marker>
    <marker
       inkscape:stockid="Arrow1Lstart"
       orient="auto"
       refY="0"
       refX="0"
       id="Arrow1Lstart"
       style="overflow:visible"
       inkscape:isstock="true">
      <path
         id="path4521"
         d="M 0,0 5,-5 -12.5,0 5,5 Z"
         style="fill:#f90000;fill-opacity:1;fill-rule:evenodd;stroke:#f90000;stroke-width:1.00000003pt;stroke-opacity:1"
         transform="matrix(0.8,0,0,0.8,10,0)"
         inkscape:connector-curvature="0" />
    </marker>
    <marker
       inkscape:stockid="Arrow2Sstart"
       orient="auto"
       refY="0"
       refX="0"
       id="Arrow2Sstart"
       style="overflow:visible"
       inkscape:isstock="true">
      <path
         id="path4551"
         style="fill:#000000;fill-opacity:1;fill-rule:evenodd;stroke:#000000;stroke-width:0.625;stroke-linejoin:round;stroke-opacity:1"
         d="M 8.7185878,4.0337352 -2.2072895,0.01601326 8.7185884,-4.0017078 c -1.7454984,2.3720609 -1.7354408,5.6174519 -6e-7,8.035443 z"
         transform="matrix(0.3,0,0,0.3,-0.69,0)"
         inkscape:connector-curvature="0" />
    </marker>
    <linearGradient
       inkscape:collect="always"
       xlink:href="#linearGradient4703"
       id="linearGradient4705"
       x1="222.00818"
       y1="101.71774"
       x2="258.14682"
       y2="61.065006"
       gradientUnits="userSpaceOnUse" />
    <linearGradient
       inkscape:collect="always"
       xlink:href="#linearGradient4703"
       id="linearGradient16259"
       gradientUnits="userSpaceOnUse"
       x1="224.07097"
       y1="99.117004"
       x2="258.14682"
       y2="61.065006" />
    <linearGradient
       inkscape:collect="always"
       xlink:href="#linearGradient4703"
       id="linearGradient5056"
       gradientUnits="userSpaceOnUse"
       x1="222.00818"
       y1="101.71774"
       x2="258.14682"
       y2="61.065006" />
  </defs>
  <metadata
     id="metadata5">
    <rdf:RDF>
      <cc:Work
         rdf:about="">
        <dc:format>image/svg+xml</dc:format>
        <dc:type
           rdf:resource="http://purl.org/dc/dcmitype/StillImage" />
        <dc:title></dc:title>
      </cc:Work>
    </rdf:RDF>
  </metadata>
  <g
     inkscape:label="Layer 1"
     inkscape:groupmode="layer"
     id="layer1"
     transform="translate(-167.72244,-48.80182)">
    <path
       cx="112.85162"
       cy="91.217667"
       r="38.373344"
       id="path13427"
       style="opacity:1;vector-effect:none;fill:none;fill-opacity:1;stroke:#f90000;stroke-width:0.30000001;stroke-linecap:square;stroke-linejoin:miter;stroke-miterlimit:4;stroke-dasharray:none;stroke-dashoffset:0;stroke-opacity:1"
       d=""
       inkscape:connector-curvature="0" />
    <circle
       cx="206.75148"
       cy="91.99144"
       id="circle6561"
       style="opacity:1;vector-effect:none;fill:none;fill-opacity:1;stroke:#fb0000;stroke-width:0.30000001;stroke-linecap:square;stroke-linejoin:miter;stroke-miterlimit:4;stroke-dasharray:none;stroke-dashoffset:0;stroke-opacity:0.19607843"
       r="38.35009" />
    <g
       id="g14703"
       transform="translate(-13.612706,-12.163537)">
      <circle
         style="opacity:1;vector-effect:none;fill:#000000;fill-opacity:1;stroke:none;stroke-width:0.23089479;stroke-linecap:square;stroke-linejoin:miter;stroke-miterlimit:4;stroke-dasharray:none;stroke-dashoffset:0;stroke-opacity:1"
         id="circle13433"
         cx="219.86641"
         cy="104.20042"
         r="1" />
      <g
         style="font-style:normal;font-variant:normal;font-weight:normal;font-stretch:normal;letter-spacing:normal;word-spacing:normal;text-anchor:start;fill:none;fill-opacity:1;fill-rule:evenodd;stroke:#000000;stroke-linecap:butt;stroke-linejoin:miter;stroke-miterlimit:10.43299961;stroke-dasharray:none;stroke-dashoffset:0;stroke-opacity:1"
         id="g13589"
         transform="matrix(0.625,0,0,-0.625,80.108418,551.86565)"
         xml:space="preserve"
         stroke-miterlimit="10.433"
         font-style="normal"
         font-variant="normal"
         font-weight="normal"
         font-stretch="normal"
         font-size-adjust="none"
         letter-spacing="normal"
         word-spacing="normal"
         ns0:text="$x^*$"
         ns0:preamble=""><path
           style="fill:#000000;stroke-width:0"
           inkscape:connector-curvature="0"
           d="m 226.76,710.13 0.01,0.03 v 0.03 l 0.01,0.03 0.01,0.04 0.01,0.03 0.01,0.05 0.02,0.04 0.01,0.04 0.02,0.05 0.01,0.05 0.02,0.05 0.02,0.05 0.03,0.05 0.02,0.05 0.03,0.05 0.02,0.05 0.03,0.04 0.03,0.05 0.04,0.05 0.03,0.04 0.04,0.05 0.04,0.04 0.04,0.03 0.05,0.04 0.04,0.03 0.05,0.03 0.03,0.01 0.02,0.02 0.03,0.01 0.03,0.01 0.02,0.01 h 0.03 l 0.03,0.01 0.03,0.01 h 0.03 0.03 l 0.03,0.01 h 0.04 c 0.05,0 0.29,0 0.49,-0.13 -0.28,-0.05 -0.47,-0.3 -0.47,-0.54 0,-0.16 0.11,-0.35 0.38,-0.35 0.21,0 0.53,0.18 0.53,0.58 0,0.52 -0.58,0.66 -0.92,0.66 -0.58,0 -0.93,-0.53 -1.05,-0.76 -0.25,0.66 -0.79,0.76 -1.08,0.76 -1.03,0 -1.6,-1.29 -1.6,-1.54 0,-0.1 0.1,-0.1 0.12,-0.1 0.08,0 0.11,0.02 0.13,0.11 0.34,1.06 1,1.31 1.33,1.31 0.19,0 0.54,-0.09 0.54,-0.67 0,-0.31 -0.17,-0.98 -0.54,-2.37 -0.15,-0.62 -0.5,-1.04 -0.94,-1.04 -0.06,0 -0.29,0 -0.5,0.13 0.25,0.05 0.47,0.26 0.47,0.54 0,0.27 -0.22,0.35 -0.37,0.35 -0.3,0 -0.55,-0.26 -0.55,-0.58 0,-0.46 0.5,-0.66 0.94,-0.66 0.66,0 1.01,0.7 1.04,0.76 0.12,-0.37 0.48,-0.76 1.08,-0.76 1.03,0 1.59,1.29 1.59,1.54 0,0.1 -0.09,0.1 -0.12,0.1 -0.09,0 -0.1,-0.04 -0.13,-0.11 -0.32,-1.07 -1,-1.31 -1.32,-1.31 -0.39,0 -0.55,0.32 -0.55,0.66 0,0.22 0.06,0.44 0.17,0.88 z"
           id="path13585" /><path
           style="fill:#000000;stroke-width:0"
           inkscape:connector-curvature="0"
           d="m 231.38,712.47 0.05,0.03 0.05,0.02 0.05,0.02 0.05,0.02 0.04,0.02 0.05,0.02 0.04,0.02 0.04,0.02 0.04,0.01 0.04,0.02 0.04,0.01 0.03,0.02 0.03,0.01 0.04,0.02 0.03,0.01 0.03,0.01 0.03,0.02 0.03,0.01 0.02,0.01 0.03,0.01 0.02,0.01 0.03,0.01 0.02,0.01 0.02,0.01 0.02,0.01 0.02,0.01 0.04,0.01 0.04,0.02 0.03,0.02 c 0.13,0.05 0.2,0.08 0.2,0.21 0,0.12 -0.09,0.23 -0.22,0.23 -0.05,0 -0.06,0 -0.15,-0.07 l -0.94,-0.63 0.1,1.03 c 0.01,0.13 0,0.3 -0.21,0.3 -0.08,0 -0.21,-0.06 -0.21,-0.21 0,-0.06 0.02,-0.27 0.03,-0.34 0.01,-0.12 0.06,-0.62 0.08,-0.78 l -0.94,0.63 c -0.07,0.05 -0.1,0.07 -0.16,0.07 -0.12,0 -0.21,-0.11 -0.21,-0.23 0,-0.14 0.08,-0.17 0.14,-0.2 l 1.06,-0.44 c -0.58,-0.25 -0.83,-0.35 -1.01,-0.43 -0.13,-0.06 -0.19,-0.08 -0.19,-0.22 0,-0.12 0.09,-0.22 0.21,-0.22 0.05,0 0.06,0 0.15,0.06 l 0.95,0.64 -0.11,-1.13 c 0,-0.15 0.13,-0.21 0.21,-0.21 0.08,0 0.22,0.06 0.22,0.21 0,0.07 -0.03,0.28 -0.04,0.35 -0.01,0.11 -0.06,0.62 -0.07,0.78 l 0.83,-0.56 c 0.18,-0.14 0.2,-0.14 0.26,-0.14 0.13,0 0.22,0.1 0.22,0.22 0,0.14 -0.09,0.18 -0.15,0.2 z"
           id="path13587" /></g>      <path
         style="fill:none;stroke:url(#linearGradient5056);stroke-width:0.30000001;stroke-linecap:butt;stroke-linejoin:miter;stroke-miterlimit:4;stroke-dasharray:1.8, 1.8;stroke-dashoffset:0;stroke-opacity:0.58823529;marker-end:url(#marker13601)"
         d="M 258.14682,61.065005 222.07373,101.65218"
         id="path13591"
         inkscape:connector-curvature="0"
         sodipodi:nodetypes="cc" />
      <g
         style="font-style:normal;font-variant:normal;font-weight:normal;font-stretch:normal;letter-spacing:normal;word-spacing:normal;text-anchor:start;fill:#ff0000;fill-opacity:0.99516913;fill-rule:evenodd;stroke:#020000;stroke-linecap:butt;stroke-linejoin:miter;stroke-miterlimit:10.43299961;stroke-dasharray:none;stroke-dashoffset:0;stroke-opacity:0.58823529"
         id="g14579"
         transform="matrix(0.20325753,-0.23736602,-0.23736602,-0.20325753,368.09854,269.28346)"
         xml:space="preserve"
         stroke-miterlimit="10.433"
         font-style="normal"
         font-variant="normal"
         font-weight="normal"
         font-stretch="normal"
         font-size-adjust="none"
         letter-spacing="normal"
         word-spacing="normal"
         ns0:text="$\\mu \\to \\mu_B$"
         ns0:preamble=""><path
           style="fill:#ff0000;fill-opacity:0.99516913;stroke:#020000;stroke-width:0;stroke-opacity:0.58823529"
           inkscape:connector-curvature="0"
           d="m 225.73,710.62 0.01,0.02 v 0.02 l 0.01,0.02 v 0.02 l 0.01,0.03 0.01,0.02 0.01,0.05 0.01,0.05 0.01,0.05 0.02,0.05 0.01,0.05 v 0.02 l 0.01,0.02 v 0.03 l 0.01,0.02 v 0.02 l 0.01,0.02 v 0.02 l 0.01,0.02 v 0.01 0.02 l 0.01,0.01 v 0.01 0.01 0.01 0.01 0 0.01 c 0,0.17 -0.12,0.27 -0.29,0.27 -0.03,0 -0.3,-0.01 -0.39,-0.36 l -1.44,-5.77 c -0.03,-0.12 -0.03,-0.14 -0.03,-0.16 0,-0.15 0.11,-0.27 0.28,-0.27 0.21,0 0.33,0.18 0.35,0.21 0.04,0.09 0.17,0.61 0.55,2.14 0.32,-0.27 0.76,-0.31 0.96,-0.31 0.7,0 1.09,0.45 1.33,0.73 0.09,-0.45 0.46,-0.73 0.9,-0.73 0.34,0 0.57,0.23 0.73,0.55 0.17,0.36 0.3,0.97 0.3,0.99 0,0.1 -0.09,0.1 -0.12,0.1 -0.1,0 -0.11,-0.04 -0.14,-0.18 -0.17,-0.65 -0.35,-1.24 -0.75,-1.24 -0.27,0 -0.3,0.26 -0.3,0.46 0,0.22 0.12,0.69 0.19,1.04 l 0.28,1.07 c 0.03,0.15 0.13,0.53 0.17,0.68 0.05,0.23 0.15,0.61 0.15,0.67 0,0.18 -0.14,0.27 -0.29,0.27 -0.05,0 -0.31,-0.01 -0.38,-0.35 l -0.47,-1.86 c -0.12,-0.5 -0.23,-0.92 -0.26,-1.02 -0.01,-0.05 -0.49,-0.96 -1.3,-0.96 -0.5,0 -0.73,0.33 -0.73,0.87 0,0.29 0.07,0.57 0.14,0.85 z"
           id="path14571" /><path
           style="fill:#ff0000;fill-opacity:0.99516913;stroke:#020000;stroke-width:0;stroke-opacity:0.58823529"
           inkscape:connector-curvature="0"
           d="m 240.51,709.41 -0.05,-0.04 -0.05,-0.03 -0.05,-0.04 -0.04,-0.04 -0.05,-0.04 -0.04,-0.04 -0.04,-0.04 -0.04,-0.03 -0.04,-0.04 -0.04,-0.04 -0.03,-0.03 -0.03,-0.04 -0.04,-0.03 -0.03,-0.04 -0.03,-0.03 -0.02,-0.03 -0.03,-0.03 -0.03,-0.03 -0.02,-0.03 -0.02,-0.03 -0.02,-0.03 -0.02,-0.03 -0.02,-0.02 -0.02,-0.03 -0.02,-0.02 -0.01,-0.02 -0.02,-0.02 -0.01,-0.02 -0.01,-0.02 -0.01,-0.01 -0.01,-0.02 -0.01,-0.01 c -0.45,-0.69 -0.53,-1.32 -0.53,-1.33 0,-0.12 0.12,-0.12 0.2,-0.12 0.17,0 0.18,0.02 0.22,0.2 0.23,0.98 0.82,1.82 1.95,2.27 0.12,0.04 0.15,0.06 0.15,0.13 0,0.07 -0.06,0.1 -0.09,0.11 -0.43,0.17 -1.64,0.67 -2.02,2.34 -0.03,0.12 -0.04,0.15 -0.21,0.15 -0.08,0 -0.2,0 -0.2,-0.12 0,-0.02 0.09,-0.64 0.51,-1.31 0.2,-0.3 0.49,-0.65 0.92,-0.97 h -7.4 c -0.18,0 -0.36,0 -0.36,-0.2 0,-0.2 0.18,-0.2 0.36,-0.2 z"
           id="path14573" /><path
           style="fill:#ff0000;fill-opacity:0.99516913;stroke:#020000;stroke-width:0;stroke-opacity:0.58823529"
           inkscape:connector-curvature="0"
           d="m 247.24,710.62 v 0.02 l 0.01,0.02 v 0.02 l 0.01,0.02 v 0.03 l 0.01,0.02 0.01,0.05 0.01,0.05 0.02,0.05 0.01,0.05 0.01,0.05 0.01,0.02 v 0.02 l 0.01,0.03 v 0.02 l 0.01,0.02 v 0.02 l 0.01,0.02 v 0.02 0.01 l 0.01,0.02 v 0.01 0.01 0.01 0.01 l 0.01,0.01 v 0 0.01 c 0,0.17 -0.12,0.27 -0.29,0.27 -0.03,0 -0.31,-0.01 -0.4,-0.36 l -1.44,-5.77 c -0.03,-0.12 -0.03,-0.14 -0.03,-0.16 0,-0.15 0.11,-0.27 0.28,-0.27 0.21,0 0.33,0.18 0.35,0.21 0.04,0.09 0.17,0.61 0.55,2.14 0.32,-0.27 0.77,-0.31 0.97,-0.31 0.69,0 1.08,0.45 1.32,0.73 0.09,-0.45 0.46,-0.73 0.9,-0.73 0.35,0 0.58,0.23 0.74,0.55 0.16,0.36 0.29,0.97 0.29,0.99 0,0.1 -0.09,0.1 -0.12,0.1 -0.1,0 -0.11,-0.04 -0.13,-0.18 -0.17,-0.65 -0.35,-1.24 -0.76,-1.24 -0.27,0 -0.3,0.26 -0.3,0.46 0,0.22 0.12,0.69 0.2,1.04 l 0.28,1.07 c 0.03,0.15 0.13,0.53 0.17,0.68 0.05,0.23 0.15,0.61 0.15,0.67 0,0.18 -0.14,0.27 -0.29,0.27 -0.05,0 -0.31,-0.01 -0.39,-0.35 l -0.47,-1.86 c -0.12,-0.5 -0.23,-0.92 -0.26,-1.02 -0.01,-0.05 -0.49,-0.96 -1.29,-0.96 -0.5,0 -0.74,0.33 -0.74,0.87 0,0.29 0.07,0.57 0.14,0.85 z"
           id="path14575" /><path
           style="fill:#ff0000;fill-opacity:0.99516913;stroke:#020000;stroke-width:0;stroke-opacity:0.58823529"
           inkscape:connector-curvature="0"
           d="m 252.26,706.17 -0.01,-0.02 v -0.02 l -0.01,-0.02 v -0.02 l -0.01,-0.01 v -0.02 l -0.01,-0.02 -0.01,-0.01 v -0.02 l -0.01,-0.01 -0.01,-0.01 -0.01,-0.01 -0.01,-0.01 -0.01,-0.01 -0.02,-0.01 -0.01,-0.01 -0.01,-0.01 -0.02,-0.01 h -0.02 l -0.02,-0.01 h -0.02 l -0.01,-0.01 h -0.02 -0.01 -0.01 -0.02 l -0.01,-0.01 h -0.02 -0.01 -0.02 -0.01 -0.02 -0.02 l -0.02,-0.01 h -0.02 -0.02 -0.02 -0.02 -0.02 -0.02 -0.03 -0.02 -0.02 c -0.12,0 -0.21,0 -0.21,-0.15 0,-0.1 0.08,-0.1 0.21,-0.1 h 2.7 c 1.17,0 2.07,0.8 2.07,1.49 0,0.5 -0.46,0.92 -1.2,1 0.85,0.15 1.55,0.68 1.55,1.28 0,0.53 -0.54,0.99 -1.44,0.99 l -0.11,-0.25 c 0.71,0 0.87,-0.47 0.87,-0.73 0,-0.57 -0.64,-1.21 -1.57,-1.21 h -1.14 l -0.05,-0.19 h 1.47 c 0.66,0 0.91,-0.43 0.91,-0.84 0,-0.69 -0.7,-1.29 -1.55,-1.29 h -1.12 c -0.22,0 -0.22,0.01 -0.22,0.07 0,0.01 0,0.04 0.03,0.15 l 0.48,1.91 0.05,0.19 0.42,1.71 c 0.06,0.21 0.06,0.23 0.36,0.23 h 1.06 l 0.11,0.25 h -2.54 c -0.13,0 -0.22,0 -0.22,-0.15 0,-0.1 0.08,-0.1 0.22,-0.1 0.01,0 0.14,0 0.26,-0.01 0.15,-0.02 0.16,-0.03 0.16,-0.1 0,-0.01 0,-0.05 -0.02,-0.15 z"
           id="path14577" /></g>      <circle
         r="1.4641001"
         cy="104.20042"
         cx="219.86641"
         id="circle4699"
         style="opacity:1;vector-effect:none;fill:none;fill-opacity:1;stroke:#ff0000;stroke-width:0.30000001;stroke-linecap:square;stroke-linejoin:miter;stroke-miterlimit:4;stroke-dasharray:none;stroke-dashoffset:0;stroke-opacity:1" />
    </g>
    <circle
       r="28.762568"
       style="opacity:1;vector-effect:none;fill:none;fill-opacity:1;stroke:#f90000;stroke-width:0.30000001;stroke-linecap:square;stroke-linejoin:miter;stroke-miterlimit:4;stroke-dasharray:none;stroke-dashoffset:0;stroke-opacity:0.39215686"
       id="circle7841"
       cy="91.99144"
       cx="206.75148" />
    <circle
       cx="206.75148"
       cy="91.99144"
       id="circle7843"
       style="opacity:1;vector-effect:none;fill:none;fill-opacity:1;stroke:#f90000;stroke-width:0.30000001;stroke-linecap:square;stroke-linejoin:miter;stroke-miterlimit:4;stroke-dasharray:none;stroke-dashoffset:0;stroke-opacity:0.64705882"
       r="20.133797" />
    <circle
       r="9.8655596"
       style="opacity:1;vector-effect:none;fill:none;fill-opacity:1;stroke:#f90000;stroke-width:0.30000001;stroke-linecap:square;stroke-linejoin:miter;stroke-miterlimit:4;stroke-dasharray:none;stroke-dashoffset:0;stroke-opacity:0.78431373"
       id="circle7845"
       cy="91.99144"
       cx="206.75148" />
    <path
       style="fill:#ff0000;fill-opacity:0.19607843;stroke:none;stroke-width:0.30000001;stroke-linecap:butt;stroke-linejoin:miter;stroke-miterlimit:4;stroke-dasharray:none;stroke-opacity:0.19607843;marker-end:url(#marker7857)"
       d="m 207.44803,53.597819 h -1.20271"
       id="path7853"
       inkscape:connector-curvature="0"
       sodipodi:nodetypes="cc" />
    <path
       sodipodi:nodetypes="cc"
       inkscape:connector-curvature="0"
       id="path8369"
       d="m 207.44803,130.34475 h -1.20271"
       style="fill:#ff0000;fill-opacity:0.19607843;stroke:none;stroke-width:0.30000001;stroke-linecap:butt;stroke-linejoin:miter;stroke-miterlimit:4;stroke-dasharray:none;stroke-opacity:0.19607843;marker-end:url(#marker8373)" />
    <path
       style="fill:#ff0000;fill-opacity:0.19607843;stroke:none;stroke-width:0.30000001;stroke-linecap:butt;stroke-linejoin:miter;stroke-miterlimit:4;stroke-dasharray:none;stroke-opacity:0.19607843;marker-end:url(#marker9265)"
       d="m 168.44275,91.680009 v 1.20271"
       id="path9261"
       inkscape:connector-curvature="0"
       sodipodi:nodetypes="cc" />
    <path
       sodipodi:nodetypes="cc"
       inkscape:connector-curvature="0"
       id="path10415"
       d="m 245.15239,92.913395 v -1.20271"
       style="fill:#ff0000;fill-opacity:0.19607843;stroke:none;stroke-width:0.30000001;stroke-linecap:butt;stroke-linejoin:miter;stroke-miterlimit:4;stroke-dasharray:none;stroke-opacity:0.19607843;marker-end:url(#marker10419)" />
    <path
       style="fill:#ff0000;fill-opacity:0.39215686;stroke:none;stroke-width:0.30000001;stroke-linecap:butt;stroke-linejoin:miter;stroke-miterlimit:4;stroke-dasharray:none;stroke-opacity:0.19607843;marker-end:url(#marker10917)"
       d="m 235.54128,92.913395 v -1.20271"
       id="path10913"
       inkscape:connector-curvature="0"
       sodipodi:nodetypes="cc" />
    <path
       sodipodi:nodetypes="cc"
       inkscape:connector-curvature="0"
       id="path11303"
       d="m 226.85432,92.913395 v -1.20271"
       style="fill:#ff0000;fill-opacity:0.58823529;stroke:none;stroke-width:0.30000001;stroke-linecap:butt;stroke-linejoin:miter;stroke-miterlimit:4;stroke-dasharray:none;stroke-opacity:0.19607843;marker-end:url(#marker11307)" />
    <path
       style="fill:#ff0000;fill-opacity:0.78431373;stroke:none;stroke-width:0.30000001;stroke-linecap:butt;stroke-linejoin:miter;stroke-miterlimit:4;stroke-dasharray:none;stroke-opacity:0.19607843;marker-end:url(#marker11703)"
       d="m 216.64252,92.913395 v -1.20271"
       id="path11699"
       inkscape:connector-curvature="0"
       sodipodi:nodetypes="cc" />
    <path
       sodipodi:nodetypes="cc"
       inkscape:connector-curvature="0"
       id="path12095"
       d="m 177.95073,91.680009 v 1.20271"
       style="fill:#ff0000;fill-opacity:0.39215686;stroke:none;stroke-width:0.30000001;stroke-linecap:butt;stroke-linejoin:miter;stroke-miterlimit:4;stroke-dasharray:none;stroke-opacity:0.19607843;marker-end:url(#marker12099)" />
    <path
       style="fill:#ff0000;fill-opacity:0.58823529;stroke:none;stroke-width:0.30000001;stroke-linecap:butt;stroke-linejoin:miter;stroke-miterlimit:4;stroke-dasharray:none;stroke-opacity:0.19607843;marker-end:url(#marker12549)"
       d="m 186.70722,91.680009 v 1.20271"
       id="path12545"
       inkscape:connector-curvature="0"
       sodipodi:nodetypes="cc" />
    <path
       sodipodi:nodetypes="cc"
       inkscape:connector-curvature="0"
       id="path12935"
       d="m 196.90134,91.680009 v 1.20271"
       style="fill:#ff0000;fill-opacity:0.78431373;stroke:none;stroke-width:0.30000001;stroke-linecap:butt;stroke-linejoin:miter;stroke-miterlimit:4;stroke-dasharray:none;stroke-opacity:0.19607843;marker-end:url(#marker12939)" />
    <path
       sodipodi:nodetypes="cc"
       inkscape:connector-curvature="0"
       id="path13331"
       d="m 207.44803,63.203816 h -1.20271"
       style="fill:#ff0000;fill-opacity:0.39215686;stroke:none;stroke-width:0.30000001;stroke-linecap:butt;stroke-linejoin:miter;stroke-miterlimit:4;stroke-dasharray:none;stroke-opacity:0.19607843;marker-end:url(#marker13335)" />
    <path
       style="fill:#ff0000;fill-opacity:0.58823529;stroke:none;stroke-width:0.30000001;stroke-linecap:butt;stroke-linejoin:miter;stroke-miterlimit:4;stroke-dasharray:none;stroke-opacity:0.19607843;marker-end:url(#marker13857)"
       d="m 207.44803,71.862282 h -1.20271"
       id="path13853"
       inkscape:connector-curvature="0"
       sodipodi:nodetypes="cc" />
    <path
       sodipodi:nodetypes="cc"
       inkscape:connector-curvature="0"
       id="path14285"
       d="m 207.44803,82.120291 h -1.20271"
       style="fill:#ff0000;fill-opacity:0.78431373;stroke:none;stroke-width:0.30000001;stroke-linecap:butt;stroke-linejoin:miter;stroke-miterlimit:4;stroke-dasharray:none;stroke-opacity:0.19607843;marker-end:url(#marker14289)" />
    <path
       style="fill:#ff0000;fill-opacity:0.39215686;stroke:none;stroke-width:0.30000001;stroke-linecap:butt;stroke-linejoin:miter;stroke-miterlimit:4;stroke-dasharray:none;stroke-opacity:0.19607843;marker-end:url(#marker14733)"
       d="m 207.44803,120.67341 h -1.20271"
       id="path14729"
       inkscape:connector-curvature="0"
       sodipodi:nodetypes="cc" />
    <path
       sodipodi:nodetypes="cc"
       inkscape:connector-curvature="0"
       id="path15143"
       d="m 207.44803,112.11296 h -1.20271"
       style="fill:#ff0000;fill-opacity:0.58823529;stroke:none;stroke-width:0.30000001;stroke-linecap:butt;stroke-linejoin:miter;stroke-miterlimit:4;stroke-dasharray:none;stroke-opacity:0.19607843;marker-end:url(#marker15147)" />
    <path
       style="fill:#ff0000;fill-opacity:0.78431373;stroke:none;stroke-width:0.30000001;stroke-linecap:butt;stroke-linejoin:miter;stroke-miterlimit:4;stroke-dasharray:none;stroke-opacity:0.19607843;marker-end:url(#marker15597)"
       d="m 207.44803,101.7228 h -1.20271"
       id="path15593"
       inkscape:connector-curvature="0"
       sodipodi:nodetypes="cc" />
    <g
       transform="translate(-13.612706,-12.163537)"
       id="g5054">
      <circle
         r="1"
         cy="104.20042"
         cx="219.86641"
         id="circle5032"
         style="opacity:1;vector-effect:none;fill:#000000;fill-opacity:1;stroke:none;stroke-width:0.23089479;stroke-linecap:square;stroke-linejoin:miter;stroke-miterlimit:4;stroke-dasharray:none;stroke-dashoffset:0;stroke-opacity:1" />
      <g
         ns0:preamble=""
         ns0:text="$x^*$"
         word-spacing="normal"
         letter-spacing="normal"
         font-size-adjust="none"
         font-stretch="normal"
         font-weight="normal"
         font-variant="normal"
         font-style="normal"
         stroke-miterlimit="10.433"
         xml:space="preserve"
         transform="matrix(0.625,0,0,-0.625,80.108418,551.86565)"
         id="g5038"
         style="font-style:normal;font-variant:normal;font-weight:normal;font-stretch:normal;letter-spacing:normal;word-spacing:normal;text-anchor:start;fill:none;fill-opacity:1;fill-rule:evenodd;stroke:#000000;stroke-linecap:butt;stroke-linejoin:miter;stroke-miterlimit:10.43299961;stroke-dasharray:none;stroke-dashoffset:0;stroke-opacity:1"><path
           id="path5034"
           d="m 226.76,710.13 0.01,0.03 v 0.03 l 0.01,0.03 0.01,0.04 0.01,0.03 0.01,0.05 0.02,0.04 0.01,0.04 0.02,0.05 0.01,0.05 0.02,0.05 0.02,0.05 0.03,0.05 0.02,0.05 0.03,0.05 0.02,0.05 0.03,0.04 0.03,0.05 0.04,0.05 0.03,0.04 0.04,0.05 0.04,0.04 0.04,0.03 0.05,0.04 0.04,0.03 0.05,0.03 0.03,0.01 0.02,0.02 0.03,0.01 0.03,0.01 0.02,0.01 h 0.03 l 0.03,0.01 0.03,0.01 h 0.03 0.03 l 0.03,0.01 h 0.04 c 0.05,0 0.29,0 0.49,-0.13 -0.28,-0.05 -0.47,-0.3 -0.47,-0.54 0,-0.16 0.11,-0.35 0.38,-0.35 0.21,0 0.53,0.18 0.53,0.58 0,0.52 -0.58,0.66 -0.92,0.66 -0.58,0 -0.93,-0.53 -1.05,-0.76 -0.25,0.66 -0.79,0.76 -1.08,0.76 -1.03,0 -1.6,-1.29 -1.6,-1.54 0,-0.1 0.1,-0.1 0.12,-0.1 0.08,0 0.11,0.02 0.13,0.11 0.34,1.06 1,1.31 1.33,1.31 0.19,0 0.54,-0.09 0.54,-0.67 0,-0.31 -0.17,-0.98 -0.54,-2.37 -0.15,-0.62 -0.5,-1.04 -0.94,-1.04 -0.06,0 -0.29,0 -0.5,0.13 0.25,0.05 0.47,0.26 0.47,0.54 0,0.27 -0.22,0.35 -0.37,0.35 -0.3,0 -0.55,-0.26 -0.55,-0.58 0,-0.46 0.5,-0.66 0.94,-0.66 0.66,0 1.01,0.7 1.04,0.76 0.12,-0.37 0.48,-0.76 1.08,-0.76 1.03,0 1.59,1.29 1.59,1.54 0,0.1 -0.09,0.1 -0.12,0.1 -0.09,0 -0.1,-0.04 -0.13,-0.11 -0.32,-1.07 -1,-1.31 -1.32,-1.31 -0.39,0 -0.55,0.32 -0.55,0.66 0,0.22 0.06,0.44 0.17,0.88 z"
           inkscape:connector-curvature="0"
           style="fill:#000000;stroke-width:0" /><path
           id="path5036"
           d="m 231.38,712.47 0.05,0.03 0.05,0.02 0.05,0.02 0.05,0.02 0.04,0.02 0.05,0.02 0.04,0.02 0.04,0.02 0.04,0.01 0.04,0.02 0.04,0.01 0.03,0.02 0.03,0.01 0.04,0.02 0.03,0.01 0.03,0.01 0.03,0.02 0.03,0.01 0.02,0.01 0.03,0.01 0.02,0.01 0.03,0.01 0.02,0.01 0.02,0.01 0.02,0.01 0.02,0.01 0.04,0.01 0.04,0.02 0.03,0.02 c 0.13,0.05 0.2,0.08 0.2,0.21 0,0.12 -0.09,0.23 -0.22,0.23 -0.05,0 -0.06,0 -0.15,-0.07 l -0.94,-0.63 0.1,1.03 c 0.01,0.13 0,0.3 -0.21,0.3 -0.08,0 -0.21,-0.06 -0.21,-0.21 0,-0.06 0.02,-0.27 0.03,-0.34 0.01,-0.12 0.06,-0.62 0.08,-0.78 l -0.94,0.63 c -0.07,0.05 -0.1,0.07 -0.16,0.07 -0.12,0 -0.21,-0.11 -0.21,-0.23 0,-0.14 0.08,-0.17 0.14,-0.2 l 1.06,-0.44 c -0.58,-0.25 -0.83,-0.35 -1.01,-0.43 -0.13,-0.06 -0.19,-0.08 -0.19,-0.22 0,-0.12 0.09,-0.22 0.21,-0.22 0.05,0 0.06,0 0.15,0.06 l 0.95,0.64 -0.11,-1.13 c 0,-0.15 0.13,-0.21 0.21,-0.21 0.08,0 0.22,0.06 0.22,0.21 0,0.07 -0.03,0.28 -0.04,0.35 -0.01,0.11 -0.06,0.62 -0.07,0.78 l 0.83,-0.56 c 0.18,-0.14 0.2,-0.14 0.26,-0.14 0.13,0 0.22,0.1 0.22,0.22 0,0.14 -0.09,0.18 -0.15,0.2 z"
           inkscape:connector-curvature="0"
           style="fill:#000000;stroke-width:0" /></g>      <path
         sodipodi:nodetypes="cc"
         inkscape:connector-curvature="0"
         id="path5040"
         d="M 258.14682,61.065005 222.07373,101.65218"
         style="fill:none;stroke:url(#linearGradient4705);stroke-width:0.30000001;stroke-linecap:butt;stroke-linejoin:miter;stroke-miterlimit:4;stroke-dasharray:1.8, 1.8;stroke-dashoffset:0;stroke-opacity:0.58823529;marker-end:url(#marker13601)" />
      <g
         ns0:preamble=""
         ns0:text="$\\mu \\to \\mu_B$"
         word-spacing="normal"
         letter-spacing="normal"
         font-size-adjust="none"
         font-stretch="normal"
         font-weight="normal"
         font-variant="normal"
         font-style="normal"
         stroke-miterlimit="10.433"
         xml:space="preserve"
         transform="matrix(0.20325753,-0.23736602,-0.23736602,-0.20325753,368.09854,269.28346)"
         id="g5050"
         style="font-style:normal;font-variant:normal;font-weight:normal;font-stretch:normal;letter-spacing:normal;word-spacing:normal;text-anchor:start;fill:#ff0000;fill-opacity:0.99516913;fill-rule:evenodd;stroke:#020000;stroke-linecap:butt;stroke-linejoin:miter;stroke-miterlimit:10.43299961;stroke-dasharray:none;stroke-dashoffset:0;stroke-opacity:0.58823529"><path
           id="path5042"
           d="m 225.73,710.62 0.01,0.02 v 0.02 l 0.01,0.02 v 0.02 l 0.01,0.03 0.01,0.02 0.01,0.05 0.01,0.05 0.01,0.05 0.02,0.05 0.01,0.05 v 0.02 l 0.01,0.02 v 0.03 l 0.01,0.02 v 0.02 l 0.01,0.02 v 0.02 l 0.01,0.02 v 0.01 0.02 l 0.01,0.01 v 0.01 0.01 0.01 0.01 0 0.01 c 0,0.17 -0.12,0.27 -0.29,0.27 -0.03,0 -0.3,-0.01 -0.39,-0.36 l -1.44,-5.77 c -0.03,-0.12 -0.03,-0.14 -0.03,-0.16 0,-0.15 0.11,-0.27 0.28,-0.27 0.21,0 0.33,0.18 0.35,0.21 0.04,0.09 0.17,0.61 0.55,2.14 0.32,-0.27 0.76,-0.31 0.96,-0.31 0.7,0 1.09,0.45 1.33,0.73 0.09,-0.45 0.46,-0.73 0.9,-0.73 0.34,0 0.57,0.23 0.73,0.55 0.17,0.36 0.3,0.97 0.3,0.99 0,0.1 -0.09,0.1 -0.12,0.1 -0.1,0 -0.11,-0.04 -0.14,-0.18 -0.17,-0.65 -0.35,-1.24 -0.75,-1.24 -0.27,0 -0.3,0.26 -0.3,0.46 0,0.22 0.12,0.69 0.19,1.04 l 0.28,1.07 c 0.03,0.15 0.13,0.53 0.17,0.68 0.05,0.23 0.15,0.61 0.15,0.67 0,0.18 -0.14,0.27 -0.29,0.27 -0.05,0 -0.31,-0.01 -0.38,-0.35 l -0.47,-1.86 c -0.12,-0.5 -0.23,-0.92 -0.26,-1.02 -0.01,-0.05 -0.49,-0.96 -1.3,-0.96 -0.5,0 -0.73,0.33 -0.73,0.87 0,0.29 0.07,0.57 0.14,0.85 z"
           inkscape:connector-curvature="0"
           style="fill:#ff0000;fill-opacity:0.99516913;stroke:#020000;stroke-width:0;stroke-opacity:0.58823529" /><path
           id="path5044"
           d="m 240.51,709.41 -0.05,-0.04 -0.05,-0.03 -0.05,-0.04 -0.04,-0.04 -0.05,-0.04 -0.04,-0.04 -0.04,-0.04 -0.04,-0.03 -0.04,-0.04 -0.04,-0.04 -0.03,-0.03 -0.03,-0.04 -0.04,-0.03 -0.03,-0.04 -0.03,-0.03 -0.02,-0.03 -0.03,-0.03 -0.03,-0.03 -0.02,-0.03 -0.02,-0.03 -0.02,-0.03 -0.02,-0.03 -0.02,-0.02 -0.02,-0.03 -0.02,-0.02 -0.01,-0.02 -0.02,-0.02 -0.01,-0.02 -0.01,-0.02 -0.01,-0.01 -0.01,-0.02 -0.01,-0.01 c -0.45,-0.69 -0.53,-1.32 -0.53,-1.33 0,-0.12 0.12,-0.12 0.2,-0.12 0.17,0 0.18,0.02 0.22,0.2 0.23,0.98 0.82,1.82 1.95,2.27 0.12,0.04 0.15,0.06 0.15,0.13 0,0.07 -0.06,0.1 -0.09,0.11 -0.43,0.17 -1.64,0.67 -2.02,2.34 -0.03,0.12 -0.04,0.15 -0.21,0.15 -0.08,0 -0.2,0 -0.2,-0.12 0,-0.02 0.09,-0.64 0.51,-1.31 0.2,-0.3 0.49,-0.65 0.92,-0.97 h -7.4 c -0.18,0 -0.36,0 -0.36,-0.2 0,-0.2 0.18,-0.2 0.36,-0.2 z"
           inkscape:connector-curvature="0"
           style="fill:#ff0000;fill-opacity:0.99516913;stroke:#020000;stroke-width:0;stroke-opacity:0.58823529" /><path
           id="path5046"
           d="m 247.24,710.62 v 0.02 l 0.01,0.02 v 0.02 l 0.01,0.02 v 0.03 l 0.01,0.02 0.01,0.05 0.01,0.05 0.02,0.05 0.01,0.05 0.01,0.05 0.01,0.02 v 0.02 l 0.01,0.03 v 0.02 l 0.01,0.02 v 0.02 l 0.01,0.02 v 0.02 0.01 l 0.01,0.02 v 0.01 0.01 0.01 0.01 l 0.01,0.01 v 0 0.01 c 0,0.17 -0.12,0.27 -0.29,0.27 -0.03,0 -0.31,-0.01 -0.4,-0.36 l -1.44,-5.77 c -0.03,-0.12 -0.03,-0.14 -0.03,-0.16 0,-0.15 0.11,-0.27 0.28,-0.27 0.21,0 0.33,0.18 0.35,0.21 0.04,0.09 0.17,0.61 0.55,2.14 0.32,-0.27 0.77,-0.31 0.97,-0.31 0.69,0 1.08,0.45 1.32,0.73 0.09,-0.45 0.46,-0.73 0.9,-0.73 0.35,0 0.58,0.23 0.74,0.55 0.16,0.36 0.29,0.97 0.29,0.99 0,0.1 -0.09,0.1 -0.12,0.1 -0.1,0 -0.11,-0.04 -0.13,-0.18 -0.17,-0.65 -0.35,-1.24 -0.76,-1.24 -0.27,0 -0.3,0.26 -0.3,0.46 0,0.22 0.12,0.69 0.2,1.04 l 0.28,1.07 c 0.03,0.15 0.13,0.53 0.17,0.68 0.05,0.23 0.15,0.61 0.15,0.67 0,0.18 -0.14,0.27 -0.29,0.27 -0.05,0 -0.31,-0.01 -0.39,-0.35 l -0.47,-1.86 c -0.12,-0.5 -0.23,-0.92 -0.26,-1.02 -0.01,-0.05 -0.49,-0.96 -1.29,-0.96 -0.5,0 -0.74,0.33 -0.74,0.87 0,0.29 0.07,0.57 0.14,0.85 z"
           inkscape:connector-curvature="0"
           style="fill:#ff0000;fill-opacity:0.99516913;stroke:#020000;stroke-width:0;stroke-opacity:0.58823529" /><path
           id="path5048"
           d="m 252.26,706.17 -0.01,-0.02 v -0.02 l -0.01,-0.02 v -0.02 l -0.01,-0.01 v -0.02 l -0.01,-0.02 -0.01,-0.01 v -0.02 l -0.01,-0.01 -0.01,-0.01 -0.01,-0.01 -0.01,-0.01 -0.01,-0.01 -0.02,-0.01 -0.01,-0.01 -0.01,-0.01 -0.02,-0.01 h -0.02 l -0.02,-0.01 h -0.02 l -0.01,-0.01 h -0.02 -0.01 -0.01 -0.02 l -0.01,-0.01 h -0.02 -0.01 -0.02 -0.01 -0.02 -0.02 l -0.02,-0.01 h -0.02 -0.02 -0.02 -0.02 -0.02 -0.02 -0.03 -0.02 -0.02 c -0.12,0 -0.21,0 -0.21,-0.15 0,-0.1 0.08,-0.1 0.21,-0.1 h 2.7 c 1.17,0 2.07,0.8 2.07,1.49 0,0.5 -0.46,0.92 -1.2,1 0.85,0.15 1.55,0.68 1.55,1.28 0,0.53 -0.54,0.99 -1.44,0.99 l -0.11,-0.25 c 0.71,0 0.87,-0.47 0.87,-0.73 0,-0.57 -0.64,-1.21 -1.57,-1.21 h -1.14 l -0.05,-0.19 h 1.47 c 0.66,0 0.91,-0.43 0.91,-0.84 0,-0.69 -0.7,-1.29 -1.55,-1.29 h -1.12 c -0.22,0 -0.22,0.01 -0.22,0.07 0,0.01 0,0.04 0.03,0.15 l 0.48,1.91 0.05,0.19 0.42,1.71 c 0.06,0.21 0.06,0.23 0.36,0.23 h 1.06 l 0.11,0.25 h -2.54 c -0.13,0 -0.22,0 -0.22,-0.15 0,-0.1 0.08,-0.1 0.22,-0.1 0.01,0 0.14,0 0.26,-0.01 0.15,-0.02 0.16,-0.03 0.16,-0.1 0,-0.01 0,-0.05 -0.02,-0.15 z"
           inkscape:connector-curvature="0"
           style="fill:#ff0000;fill-opacity:0.99516913;stroke:#020000;stroke-width:0;stroke-opacity:0.58823529" /></g>      <circle
         style="opacity:1;vector-effect:none;fill:none;fill-opacity:1;stroke:#ff0000;stroke-width:0.30000001;stroke-linecap:square;stroke-linejoin:miter;stroke-miterlimit:4;stroke-dasharray:none;stroke-dashoffset:0;stroke-opacity:1"
         id="circle5052"
         cx="219.86641"
         cy="104.20042"
         r="1.4641001" />
    </g>
  </g>
</svg>
