<?xml version="1.0" encoding="UTF-8" standalone="no"?>
<!-- Created with matplotlib (https://matplotlib.org/) -->

<svg
   xmlns:dc="http://purl.org/dc/elements/1.1/"
   xmlns:cc="http://creativecommons.org/ns#"
   xmlns:rdf="http://www.w3.org/1999/02/22-rdf-syntax-ns#"
   xmlns:svg="http://www.w3.org/2000/svg"
   xmlns="http://www.w3.org/2000/svg"
   xmlns:xlink="http://www.w3.org/1999/xlink"
   xmlns:sodipodi="http://sodipodi.sourceforge.net/DTD/sodipodi-0.dtd"
   xmlns:inkscape="http://www.inkscape.org/namespaces/inkscape"
   height="675.02301pt"
   version="1.1"
   viewBox="0 0 1182.5075 675.02301"
   width="1182.5076pt"
   id="svg500"
   sodipodi:docname="voltageRegulatorSimulation.svg"
   inkscape:version="0.92.4 5da689c313, 2019-01-14">
  <metadata
     id="metadata504">
    <rdf:RDF>
      <cc:Work
         rdf:about="">
        <dc:format>image/svg+xml</dc:format>
        <dc:type
           rdf:resource="http://purl.org/dc/dcmitype/StillImage" />
        <dc:title></dc:title>
      </cc:Work>
    </rdf:RDF>
  </metadata>
  <sodipodi:namedview
     pagecolor="#ffffff"
     bordercolor="#666666"
     borderopacity="1"
     objecttolerance="10"
     gridtolerance="10"
     guidetolerance="10"
     inkscape:pageopacity="0"
     inkscape:pageshadow="2"
     inkscape:window-width="1920"
     inkscape:window-height="1052"
     id="namedview502"
     showgrid="false"
     fit-margin-top="0"
     fit-margin-left="0"
     fit-margin-right="0"
     fit-margin-bottom="0"
     inkscape:zoom="0.9636785"
     inkscape:cx="702.1201"
     inkscape:cy="518.3967"
     inkscape:window-x="1920"
     inkscape:window-y="200"
     inkscape:window-maximized="1"
     inkscape:current-layer="axes_1" />
  <defs
     id="defs4"
     style="stroke-linecap:butt;stroke-linejoin:round">
    <marker
       inkscape:stockid="Arrow2Mend"
       orient="auto"
       refY="0"
       refX="0"
       id="marker2093"
       style="overflow:visible;stroke-linecap:butt;stroke-linejoin:round"
       inkscape:isstock="true">
      <path
         id="path2091"
         style="fill:#000000;fill-opacity:1;fill-rule:evenodd;stroke:#000000;stroke-width:0.625;stroke-linecap:butt;stroke-linejoin:round;stroke-opacity:1"
         d="M 8.7185878,4.0337352 -2.2072895,0.01601326 8.7185884,-4.0017078 c -1.7454984,2.3720609 -1.7354408,5.6174519 -6e-7,8.035443 z"
         transform="scale(-0.6)"
         inkscape:connector-curvature="0" />
    </marker>
    <marker
       inkscape:stockid="Arrow2Mend"
       orient="auto"
       refY="0"
       refX="0"
       id="Arrow2Mend"
       style="overflow:visible;stroke-linecap:butt;stroke-linejoin:round"
       inkscape:isstock="true">
      <path
         id="path1768"
         style="fill:#390000;fill-opacity:1;fill-rule:evenodd;stroke:#390000;stroke-width:0.625;stroke-linecap:butt;stroke-linejoin:round;stroke-opacity:1"
         d="M 8.7185878,4.0337352 -2.2072895,0.01601326 8.7185884,-4.0017078 c -1.7454984,2.3720609 -1.7354408,5.6174519 -6e-7,8.035443 z"
         transform="scale(-0.6)"
         inkscape:connector-curvature="0" />
    </marker>
    <style
       type="text/css"
       id="style2">
*{stroke-linecap:butt;stroke-linejoin:round;}
  </style>
    <defs
       id="defs372">
      <path
         id="Nimbus_Roman_No9_L_Regular-67"
         d="M 62,45.390625 61.09375,68 H 59 c -0.59375,-2.109375 -2.203125,-3.3125 -4.203125,-3.3125 -0.890625,0 -2.390625,0.296875 -3.890625,0.90625 C 46,67.1875 41,68 36.296875,68 c -8.203125,0 -16.5,-3.109375 -22.703125,-8.609375 -7,-6.1875 -10.796875,-15.5 -10.796875,-26.5 0,-9.296875 3,-17.890625 8.109375,-23.59375 C 16.90625,2.796875 26.09375,-1 36,-1 47.296875,-1 57.203125,3.59375 63.296875,11.6875 L 61.5,13.5 C 54.09375,6.390625 47.5,3.390625 39.203125,3.390625 c -6.296875,0 -11.90625,2 -16.203125,5.796875 -5.5,4.90625 -8.59375,13.90625 -8.59375,25 0,18.109375 9.296875,29.796875 23.796875,29.796875 5.703125,0 10.890625,-2.09375 14.890625,-6.09375 3.203125,-3.1875 4.703125,-6 6.609375,-12.5 z"
         inkscape:connector-curvature="0"
         style="stroke-linecap:butt;stroke-linejoin:round" />
      <path
         id="Nimbus_Roman_No9_L_Regular-107"
         d="M 0.703125,62.296875 C 2,62.390625 2.90625,62.5 3.90625,62.5 c 3.296875,0 4.296875,-1.3125 4.296875,-6.109375 V 8.1875 c 0,-5.1875 -0.296875,-5.5 -7.5,-6.6875 V 0 H 24.09375 v 1.5 l -2,0.09375 c -4,0.203125 -5.5,1.59375 -5.5,5.09375 v 18.40625 l 14,-18.703125 L 30.90625,6 c 0.1875,-0.3125 0.390625,-0.609375 0.6875,-0.90625 0.8125,-1 1.109375,-1.59375 1.109375,-2.09375 0,-0.90625 -0.90625,-1.5 -2.109375,-1.5 H 28.703125 V 0 H 50.5 V 1.5 C 46.09375,1.796875 43,3.6875 38.796875,8.796875 L 23.5,28.1875 l 2.90625,2.703125 c 7.09375,6.609375 13.296875,11.203125 16.1875,12 1.5,0.40625 2.90625,0.59375 4.609375,0.59375 H 48 V 45 H 27.59375 v -1.40625 c 3.90625,-0.109375 5,-0.5 5,-1.90625 0,-0.796875 -0.890625,-2.1875 -2.296875,-3.390625 L 16.59375,26.09375 v 42 l -0.390625,0.203125 c -3.796875,-1.203125 -6.703125,-2 -12.5,-3.609375 l -3,-0.796875 z"
         inkscape:connector-curvature="0"
         style="stroke-linecap:butt;stroke-linejoin:round" />
      <path
         id="Nimbus_Roman_No9_L_Regular-99"
         d="M 39.796875,15.59375 C 35,8.59375 31.40625,6.1875 25.703125,6.1875 c -9.109375,0 -15.5,8 -15.5,19.5 0,10.296875 5.5,17.40625 13.59375,17.40625 3.609375,0 4.90625,-1.109375 5.90625,-4.796875 l 0.59375,-2.203125 C 31.09375,33.296875 32.90625,31.484375 35,31.484375 c 2.59375,0 4.796875,1.90625 4.796875,4.203125 0,5.609375 -7,10.3125 -15.390625,10.3125 -4.90625,0 -10,-2.015625 -14.109375,-5.609375 C 5.296875,35.984375 2.5,29.1875 2.5,21.296875 2.5,8.296875 10.40625,-1 21.5,-1 26,-1 30,0.59375 33.59375,3.6875 c 2.703125,2.40625 4.609375,5.109375 7.609375,11 z"
         inkscape:connector-curvature="0"
         style="stroke-linecap:butt;stroke-linejoin:round" />
      <path
         id="Nimbus_Roman_No9_L_Regular-110"
         d="M 1.59375,39.796875 C 2.203125,40.09375 3.203125,40.1875 4.296875,40.1875 7.09375,40.1875 8,38.6875 8,33.796875 V 9 C 8,3.296875 6.90625,1.890625 1.796875,1.5 V 0 H 23 v 1.5 c -5.09375,0.390625 -6.59375,1.59375 -6.59375,5.1875 v 28.109375 c 4.796875,4.5 7,5.6875 10.296875,5.6875 4.890625,0 7.296875,-3.09375 7.296875,-9.6875 V 9.890625 C 34,3.59375 32.703125,1.890625 27.703125,1.5 V 0 H 48.5 V 1.5 C 43.59375,2 42.40625,3.1875 42.40625,8.09375 V 31 c 0,9.390625 -4.40625,15 -11.8125,15 -4.59375,0 -7.6875,-1.703125 -14.5,-8.109375 v 7.90625 L 15.40625,46 C 10.5,44.1875 7.09375,43.09375 1.59375,41.484375 Z"
         inkscape:connector-curvature="0"
         style="stroke-linecap:butt;stroke-linejoin:round" />
      <path
         id="Nimbus_Roman_No9_L_Regular-114"
         d="m 0.703125,39 c 1.390625,0.296875 2.296875,0.390625 3.5,0.390625 2.5,0 3.390625,-1.59375 3.390625,-6 v -25 C 7.59375,3.390625 6.90625,2.6875 0.5,1.5 V 0 h 24 V 1.5 C 17.703125,1.796875 16,3.296875 16,9 v 22.5 c 0,3.1875 4.296875,8.1875 7,8.1875 0.59375,0 1.5,-0.5 2.59375,-1.5 1.609375,-1.390625 2.703125,-2 4,-2 C 32,36.1875 33.5,37.890625 33.5,40.6875 33.5,43.984375 31.40625,46 28,46 23.796875,46 20.90625,43.6875 16,36.59375 v 9.203125 L 15.5,46 C 10.203125,43.796875 6.59375,42.5 0.703125,40.59375 Z"
         inkscape:connector-curvature="0"
         style="stroke-linecap:butt;stroke-linejoin:round" />
      <path
         id="Nimbus_Roman_No9_L_Regular-115"
         d="M 31.5,31.390625 31.09375,45 H 30 l -0.203125,-0.203125 c -0.890625,-0.703125 -1,-0.8125 -1.390625,-0.8125 -0.609375,0 -1.609375,0.203125 -2.703125,0.703125 C 23.5,45.59375 21.296875,46 18.703125,46 10.796875,46 5.09375,40.890625 5.09375,33.671875 c 0,-5.609375 3.203125,-9.625 11.703125,-14.4375 l 5.796875,-3.3125 c 3.5,-2 5.203125,-4.40625 5.203125,-7.515625 C 27.796875,4 24.59375,1.1875 19.5,1.1875 c -3.40625,0 -6.5,1.3125 -8.40625,3.515625 -2.09375,2.5 -3,4.8125 -4.296875,10.515625 h -1.59375 v -15.625 H 6.5 c 0.703125,1 1.09375,1.203125 2.296875,1.203125 0.90625,0 2.296875,-0.203125 4.609375,-0.796875 2.796875,-0.609375 5.5,-1 7.296875,-1 7.703125,0 14.09375,5.796875 14.09375,12.8125 0,5.015625 -2.390625,8.328125 -8.390625,11.9375 l -10.8125,6.40625 c -2.796875,1.609375 -4.296875,4.109375 -4.296875,6.8125 0,4.015625 3.109375,6.828125 7.703125,6.828125 5.703125,0 8.703125,-3.40625 11,-12.328125 z"
         inkscape:connector-curvature="0"
         style="stroke-linecap:butt;stroke-linejoin:round" />
      <path
         id="Nimbus_Roman_No9_L_Regular-2"
         d=""
         inkscape:connector-curvature="0"
         style="stroke-linecap:butt;stroke-linejoin:round" />
      <path
         id="Nimbus_Roman_No9_L_Regular-100"
         d="m 34.40625,-1 14.6875,5.1875 V 5.796875 C 47.296875,5.6875 47.09375,5.6875 46.796875,5.6875 c -3.59375,0 -4.390625,1.109375 -4.390625,5.703125 V 68.09375 l -0.5,0.203125 c -4.8125,-1.703125 -8.3125,-2.703125 -14.703125,-4.40625 v -1.59375 c 0.796875,0.09375 1.390625,0.09375 2.203125,0.09375 3.6875,0 4.59375,-1 4.59375,-5.09375 V 41.6875 C 30.203125,44.890625 27.5,46 23.5,46 12,46 2.703125,34.6875 2.703125,20.5 c 0,-12.8125 7.5,-21.5 18.5,-21.5 C 26.796875,-1 30.59375,1 34,5.6875 V -0.703125 Z M 34,10.1875 c 0,-0.6875 -0.703125,-1.890625 -1.703125,-3 -1.796875,-2 -4.296875,-3 -7.203125,-3 -8.296875,0 -13.796875,8 -13.796875,20.3125 0,11.296875 4.90625,18.6875 12.5,18.6875 C 29.09375,43.1875 34,38.5 34,33.1875 Z"
         inkscape:connector-curvature="0"
         style="stroke-linecap:butt;stroke-linejoin:round" />
      <path
         id="Nimbus_Roman_No9_L_Regular-119"
         d="M 57.09375,45 V 43.484375 C 60.5,42.796875 61.5,42.109375 61.5,40.421875 61.5,38.9375 60.90625,36.5625 59.796875,33.875 l -9,-21.984375 -8.390625,22.1875 c -1.703125,4.5625 -1.703125,4.5625 -1.703125,5.84375 0,2.1875 1.09375,2.875 5.796875,3.5625 V 45 H 26.203125 V 43.484375 C 29.90625,43.09375 31.09375,42 33.09375,36.65625 c 0.703125,-1.890625 1.40625,-3.765625 2,-5.546875 L 26,11.390625 16.09375,37.25 C 15.703125,38.234375 15.5,39.234375 15.5,40.21875 c 0,2.078125 1.203125,2.875 4.59375,3.265625 V 45 h -18 v -1.515625 c 2.3125,-0.1875 3.109375,-1.1875 5.3125,-6.234375 l 13.5,-33.875 C 22.09375,0.390625 22.90625,-1 23.5,-1 24,-1 24.796875,0.296875 26,2.875 L 37.203125,26.65625 46.296875,3.265625 C 47.703125,-0.40625 48.09375,-1 48.703125,-1 49.40625,-1 49.90625,-0.109375 51.5,3.859375 l 13.796875,34.28125 c 1.796875,4.15625 2.109375,4.65625 4.109375,5.34375 V 45 Z"
         inkscape:connector-curvature="0"
         style="stroke-linecap:butt;stroke-linejoin:round" />
      <path
         id="Nimbus_Roman_No9_L_Regular-104"
         d="m 15.703125,34.296875 c 4.203125,4.59375 7.203125,6.296875 11.09375,6.296875 5,0 7.5,-3.59375 7.5,-10.59375 V 10.1875 c 0,-6.796875 -1,-8.09375 -6.796875,-8.6875 V 0 h 21.203125 v 1.5 c -5.40625,1 -6,1.796875 -6,8.6875 V 30.09375 C 42.703125,40.59375 38.5,46 30.40625,46 24.5,46 20.296875,43.59375 15.703125,37.59375 V 68 l -0.5,0.296875 c -3.40625,-1.203125 -5.90625,-2 -11.5,-3.609375 L 1,63.890625 v -1.59375 c 0.40625,0.09375 0.703125,0.09375 1.203125,0.09375 4.296875,0 5.09375,-0.796875 5.09375,-5.09375 V 10.1875 c 0,-7 -0.59375,-7.890625 -6.390625,-8.6875 V 0 H 22.5 v 1.5 c -5.796875,0.59375 -6.796875,1.796875 -6.796875,8.6875 z"
         inkscape:connector-curvature="0"
         style="stroke-linecap:butt;stroke-linejoin:round" />
      <path
         id="Nimbus_Roman_No9_L_Regular_Italic-100"
         d="m 46.296875,11.15625 c -5.390625,-6.171875 -6.5,-7.0625 -8.203125,-7.0625 -1,0 -1.796875,0.890625 -1.796875,1.984375 0,1.390625 3.203125,13.53125 6.5,24.46875 C 45.5,39.703125 47.59375,47.6875 52.703125,67.6875 l -0.5,0.5 C 46.90625,67.09375 43.296875,66.5 36.90625,65.890625 V 64.1875 c 5.5,-0.1875 6.1875,-0.5 6.1875,-2.59375 0,-1.296875 -0.09375,-1.90625 -1.5,-7 L 37.203125,38.203125 C 36.40625,42.390625 34.59375,44 30.703125,44 17.703125,44 1.5,25.28125 1.5,10.359375 1.5,3.296875 5.5,-1 12,-1 18.796875,-1 23.203125,2.1875 30,12.140625 28.90625,7.078125 28.703125,5.578125 28.703125,3.296875 28.703125,0.796875 30.40625,-1 32.90625,-1 37.09375,-1 42.296875,3.09375 47.5,10.390625 Z M 31.09375,41.890625 c 3,-0.203125 4.5,-2.09375 4.5,-5.703125 C 35.59375,21 25.203125,3.796875 16,3.796875 c -3.40625,0 -5.796875,2.703125 -5.796875,6.59375 0,8.296875 5,19.90625 11.59375,26.90625 2.796875,2.890625 6.5,4.796875 9.296875,4.59375 z"
         inkscape:connector-curvature="0"
         style="stroke-linecap:butt;stroke-linejoin:round" />
      <path
         id="CMR10-61"
         d="m 68.703125,32.984375 c 1.5,0 3.390625,0 3.390625,2 C 72.09375,37 70.203125,37 68.796875,37 H 8.90625 C 7.5,37 5.59375,37 5.59375,34.984375 c 0,-2 1.90625,-2 3.40625,-2 z M 68.796875,13 c 1.40625,0 3.296875,0 3.296875,2 0,2 -1.890625,2 -3.390625,2 H 9 c -1.5,0 -3.40625,0 -3.40625,-2 0,-2 1.90625,-2 3.3125,-2 z"
         inkscape:connector-curvature="0"
         style="stroke-linecap:butt;stroke-linejoin:round" />
    </defs>
  </defs>
  <g
     id="figure_1"
     style="stroke-linecap:butt;stroke-linejoin:round"
     transform="translate(-62.361156,-20.893258)">
    <g
       id="axes_1"
       style="stroke-linecap:butt;stroke-linejoin:round">
      <g
         id="line2d_2"
         style="stroke-width:1.41732275;stroke-linecap:butt;stroke-linejoin:round;stroke-miterlimit:4;stroke-dasharray:none">
        <defs
           id="defs16">
          <path
             d="M 0,0 V 3.5"
             id="m41ff246f43"
             style="stroke:#000000;stroke-width:0.80000001;stroke-linecap:butt;stroke-linejoin:round"
             inkscape:connector-curvature="0" />
        </defs>
        <g
           id="g20"
           style="stroke-width:1.41732275;stroke-linecap:butt;stroke-linejoin:round;stroke-miterlimit:4;stroke-dasharray:none">
          <use
             style="stroke:#000000;stroke-width:1.41732275;stroke-linecap:butt;stroke-linejoin:round;stroke-miterlimit:4;stroke-dasharray:none"
             x="188.50909"
             xlink:href="#m41ff246f43"
             y="630.50403"
             id="use18"
             width="100%"
             height="100%" />
        </g>
      </g>
      <g
         id="text_1"
         style="stroke-linecap:butt;stroke-linejoin:round"
         transform="matrix(2.5,0,0,2.5,-282.76364,-953.67718)">
        <!-- $0.0$ -->
        <defs
           id="defs25">
          <path
             d="M 25.40625,68 C 19.90625,68 15.703125,66.296875 12,62.796875 6.203125,57.203125 2.40625,45.6875 2.40625,34 c 0,-10.90625 3.296875,-22.609375 8,-28.203125 C 14.09375,1.390625 19.203125,-1 25,-1 c 5.09375,0 9.40625,1.6875 13,5.1875 5.796875,5.5 9.59375,17.109375 9.59375,29.203125 C 47.59375,53.890625 38.5,68 25.40625,68 Z m -0.3125,-2.609375 C 33.5,65.390625 38,54.09375 38,33.1875 38,12.296875 33.59375,1.59375 25,1.59375 c -8.59375,0 -13,10.703125 -13,31.5 0,21.203125 4.5,32.296875 13.09375,32.296875 z"
             id="Nimbus_Roman_No9_L_Regular-48"
             inkscape:connector-curvature="0"
             style="stroke-linecap:butt;stroke-linejoin:round" />
          <path
             d="m 19.203125,5.296875 c 0,2.890625 -2.40625,5.296875 -5.296875,5.296875 C 11,10.59375 8.59375,8.1875 8.59375,5.296875 8.59375,2.390625 11,0 13.90625,0 c 2.890625,0 5.296875,2.390625 5.296875,5.296875 z"
             id="CMMI10-58"
             inkscape:connector-curvature="0"
             style="stroke-linecap:butt;stroke-linejoin:round" />
        </defs>
        <g
           transform="matrix(0.1,0,0,-0.1,182.148,644.25858)"
           id="g33"
           style="stroke-linecap:butt;stroke-linejoin:round">
          <use
             transform="scale(0.996264)"
             xlink:href="#Nimbus_Roman_No9_L_Regular-48"
             id="use27"
             style="stroke-linecap:butt;stroke-linejoin:round"
             x="0"
             y="0"
             width="100%"
             height="100%" />
          <use
             transform="matrix(0.996264,0,0,0.996264,49.8132,0)"
             xlink:href="#CMMI10-58"
             id="use29"
             style="stroke-linecap:butt;stroke-linejoin:round"
             x="0"
             y="0"
             width="100%"
             height="100%" />
          <use
             transform="matrix(0.996264,0,0,0.996264,77.408707,0)"
             xlink:href="#Nimbus_Roman_No9_L_Regular-48"
             id="use31"
             style="stroke-linecap:butt;stroke-linejoin:round"
             x="0"
             y="0"
             width="100%"
             height="100%" />
        </g>
      </g>
      <g
         id="line2d_3"
         style="stroke-width:1.41732275;stroke-linecap:butt;stroke-linejoin:round;stroke-miterlimit:4;stroke-dasharray:none">
        <path
           clip-path="url(#p15241815d0)"
           d="M 389.58546,630.504 V 70.056"
           style="fill:none;stroke:#b0b0b0;stroke-width:1.41732275;stroke-linecap:square;stroke-linejoin:round;stroke-miterlimit:4;stroke-dasharray:none"
           id="path37"
           inkscape:connector-curvature="0" />
      </g>
      <g
         id="line2d_4"
         style="stroke-width:1.41732275;stroke-linecap:butt;stroke-linejoin:round;stroke-miterlimit:4;stroke-dasharray:none">
        <g
           id="g42"
           style="stroke-width:1.41732275;stroke-linecap:butt;stroke-linejoin:round;stroke-miterlimit:4;stroke-dasharray:none">
          <use
             style="stroke:#000000;stroke-width:1.41732275;stroke-linecap:butt;stroke-linejoin:round;stroke-miterlimit:4;stroke-dasharray:none"
             x="389.58545"
             xlink:href="#m41ff246f43"
             y="630.50403"
             id="use40"
             width="100%"
             height="100%" />
        </g>
      </g>
      <g
         id="text_2"
         style="stroke-linecap:butt;stroke-linejoin:round"
         transform="matrix(2.5,0,0,2.5,-583.76641,-953.67718)">
        <!-- $0.1$ -->
        <defs
           id="defs46">
          <path
             d="m 29.09375,68 -18,-9 v -1.40625 c 1.203125,0.5 2.3125,0.890625 2.703125,1.09375 1.796875,0.703125 3.5,1.09375 4.5,1.09375 2.109375,0 3,-1.484375 3,-4.703125 V 9.359375 C 21.296875,6.03125 20.5,3.71875 18.90625,2.796875 17.40625,1.890625 16,1.59375 11.796875,1.5 V 0 H 39.40625 v 1.5 c -7.90625,0.09375 -9.5,1.109375 -9.5,5.953125 v 60.34375 z"
             id="Nimbus_Roman_No9_L_Regular-49"
             inkscape:connector-curvature="0"
             style="stroke-linecap:butt;stroke-linejoin:round" />
        </defs>
        <g
           transform="matrix(0.1,0,0,-0.1,383.22436,644.25858)"
           id="g54"
           style="stroke-linecap:butt;stroke-linejoin:round">
          <use
             transform="scale(0.996264)"
             xlink:href="#Nimbus_Roman_No9_L_Regular-48"
             id="use48"
             style="stroke-linecap:butt;stroke-linejoin:round"
             x="0"
             y="0"
             width="100%"
             height="100%" />
          <use
             transform="matrix(0.996264,0,0,0.996264,49.8132,0)"
             xlink:href="#CMMI10-58"
             id="use50"
             style="stroke-linecap:butt;stroke-linejoin:round"
             x="0"
             y="0"
             width="100%"
             height="100%" />
          <use
             transform="matrix(0.996264,0,0,0.996264,77.408707,0)"
             xlink:href="#Nimbus_Roman_No9_L_Regular-49"
             id="use52"
             style="stroke-linecap:butt;stroke-linejoin:round"
             x="0"
             y="0"
             width="100%"
             height="100%" />
        </g>
      </g>
      <g
         id="line2d_5"
         style="stroke-width:1.41732275;stroke-linecap:butt;stroke-linejoin:round;stroke-miterlimit:4;stroke-dasharray:none">
        <path
           clip-path="url(#p15241815d0)"
           d="M 590.66182,630.504 V 70.056"
           style="fill:none;stroke:#b0b0b0;stroke-width:1.41732275;stroke-linecap:square;stroke-linejoin:round;stroke-miterlimit:4;stroke-dasharray:none"
           id="path58"
           inkscape:connector-curvature="0" />
      </g>
      <g
         id="line2d_6"
         style="stroke-width:1.41732275;stroke-linecap:butt;stroke-linejoin:round;stroke-miterlimit:4;stroke-dasharray:none">
        <g
           id="g63"
           style="stroke-width:1.41732275;stroke-linecap:butt;stroke-linejoin:round;stroke-miterlimit:4;stroke-dasharray:none">
          <use
             style="stroke:#000000;stroke-width:1.41732275;stroke-linecap:butt;stroke-linejoin:round;stroke-miterlimit:4;stroke-dasharray:none"
             x="590.6618"
             xlink:href="#m41ff246f43"
             y="630.50403"
             id="use61"
             width="100%"
             height="100%" />
        </g>
      </g>
      <g
         id="text_3"
         style="stroke-linecap:butt;stroke-linejoin:round"
         transform="matrix(2.5,0,0,2.5,-885.98572,-953.67718)">
        <!-- $0.2$ -->
        <defs
           id="defs67">
          <path
             d="M 47.5,13.734375 46.203125,14.25 c -3.703125,-5.75 -5,-6.65625 -9.5,-6.65625 H 12.796875 L 29.59375,25.328125 c 8.90625,9.375 12.8125,17.03125 12.8125,24.890625 C 42.40625,60.28125 34.296875,68 23.90625,68 18.40625,68 13.203125,65.796875 9.5,61.796875 6.296875,58.375 4.796875,55.15625 3.09375,48 l 2.109375,-0.515625 c 4,9.875 7.59375,13.109375 14.5,13.109375 8.390625,0 14.09375,-5.75 14.09375,-14.203125 0,-7.859375 -4.59375,-17.234375 -13,-26.203125 L 3,1.1875 V 0 h 39 z"
             id="Nimbus_Roman_No9_L_Regular-50"
             inkscape:connector-curvature="0"
             style="stroke-linecap:butt;stroke-linejoin:round" />
        </defs>
        <g
           transform="matrix(0.1,0,0,-0.1,584.30072,644.25858)"
           id="g75"
           style="stroke-linecap:butt;stroke-linejoin:round">
          <use
             transform="scale(0.996264)"
             xlink:href="#Nimbus_Roman_No9_L_Regular-48"
             id="use69"
             style="stroke-linecap:butt;stroke-linejoin:round"
             x="0"
             y="0"
             width="100%"
             height="100%" />
          <use
             transform="matrix(0.996264,0,0,0.996264,49.8132,0)"
             xlink:href="#CMMI10-58"
             id="use71"
             style="stroke-linecap:butt;stroke-linejoin:round"
             x="0"
             y="0"
             width="100%"
             height="100%" />
          <use
             transform="matrix(0.996264,0,0,0.996264,77.408707,0)"
             xlink:href="#Nimbus_Roman_No9_L_Regular-50"
             id="use73"
             style="stroke-linecap:butt;stroke-linejoin:round"
             x="0"
             y="0"
             width="100%"
             height="100%" />
        </g>
      </g>
      <g
         id="line2d_7"
         style="stroke-width:1.41732275;stroke-linecap:butt;stroke-linejoin:round;stroke-miterlimit:4;stroke-dasharray:none">
        <path
           clip-path="url(#p15241815d0)"
           d="M 791.73818,630.504 V 70.056"
           style="fill:none;stroke:#b0b0b0;stroke-width:1.41732275;stroke-linecap:square;stroke-linejoin:round;stroke-miterlimit:4;stroke-dasharray:none"
           id="path79"
           inkscape:connector-curvature="0" />
      </g>
      <g
         id="line2d_8"
         style="stroke-width:1.41732275;stroke-linecap:butt;stroke-linejoin:round;stroke-miterlimit:4;stroke-dasharray:none">
        <g
           id="g84"
           style="stroke-width:1.41732275;stroke-linecap:butt;stroke-linejoin:round;stroke-miterlimit:4;stroke-dasharray:none">
          <use
             style="stroke:#000000;stroke-width:1.41732275;stroke-linecap:butt;stroke-linejoin:round;stroke-miterlimit:4;stroke-dasharray:none"
             x="791.73816"
             xlink:href="#m41ff246f43"
             y="630.50403"
             id="use82"
             width="100%"
             height="100%" />
        </g>
      </g>
      <g
         id="text_4"
         style="stroke-linecap:butt;stroke-linejoin:round"
         transform="matrix(2.5,0,0,2.5,-1187.2792,-953.67718)">
        <!-- $0.3$ -->
        <defs
           id="defs88">
          <path
             d="m 15.296875,33.390625 c 5.90625,0 8.203125,-0.203125 10.609375,-1.09375 C 32.09375,30.09375 36,24.390625 36,17.5 36,9.09375 30.296875,2.59375 22.90625,2.59375 c -2.703125,0 -4.703125,0.703125 -8.40625,3.09375 -3,1.8125 -4.703125,2.5 -6.40625,2.5 -2.296875,0 -3.796875,-1.390625 -3.796875,-3.5 0,-3.5 4.296875,-5.6875 11.296875,-5.6875 7.703125,0 15.609375,2.59375 20.3125,6.6875 4.6875,4.109375 7.296875,9.90625 7.296875,16.609375 0,5.09375 -1.609375,9.796875 -4.5,12.890625 -2,2.203125 -3.90625,3.40625 -8.296875,5.3125 6.890625,4.6875 9.390625,8.390625 9.390625,13.796875 C 39.796875,62.390625 33.40625,68 24.203125,68 c -5,0 -9.40625,-1.703125 -13,-4.90625 -3,-2.703125 -4.5,-5.296875 -6.703125,-11.296875 L 6,51.390625 c 4.09375,7.3125 8.59375,10.59375 14.90625,10.59375 6.5,0 11,-4.390625 11,-10.6875 0,-3.609375 -1.5,-7.203125 -4,-9.703125 -3,-3 -5.8125,-4.5 -12.609375,-6.90625 z"
             id="Nimbus_Roman_No9_L_Regular-51"
             inkscape:connector-curvature="0"
             style="stroke-linecap:butt;stroke-linejoin:round" />
        </defs>
        <g
           transform="matrix(0.1,0,0,-0.1,785.37709,644.25858)"
           id="g96"
           style="stroke-linecap:butt;stroke-linejoin:round">
          <use
             transform="scale(0.996264)"
             xlink:href="#Nimbus_Roman_No9_L_Regular-48"
             id="use90"
             style="stroke-linecap:butt;stroke-linejoin:round"
             x="0"
             y="0"
             width="100%"
             height="100%" />
          <use
             transform="matrix(0.996264,0,0,0.996264,49.8132,0)"
             xlink:href="#CMMI10-58"
             id="use92"
             style="stroke-linecap:butt;stroke-linejoin:round"
             x="0"
             y="0"
             width="100%"
             height="100%" />
          <use
             transform="matrix(0.996264,0,0,0.996264,77.408707,0)"
             xlink:href="#Nimbus_Roman_No9_L_Regular-51"
             id="use94"
             style="stroke-linecap:butt;stroke-linejoin:round"
             x="0"
             y="0"
             width="100%"
             height="100%" />
        </g>
      </g>
      <g
         id="line2d_9"
         style="stroke-width:1.41732275;stroke-linecap:butt;stroke-linejoin:round;stroke-miterlimit:4;stroke-dasharray:none">
        <path
           clip-path="url(#p15241815d0)"
           d="M 992.81454,630.504 V 70.056"
           style="fill:none;stroke:#b0b0b0;stroke-width:1.41732275;stroke-linecap:square;stroke-linejoin:round;stroke-miterlimit:4;stroke-dasharray:none"
           id="path100"
           inkscape:connector-curvature="0" />
      </g>
      <g
         id="line2d_10"
         style="stroke-width:1.41732275;stroke-linecap:butt;stroke-linejoin:round;stroke-miterlimit:4;stroke-dasharray:none">
        <g
           id="g105"
           style="stroke-width:1.41732275;stroke-linecap:butt;stroke-linejoin:round;stroke-miterlimit:4;stroke-dasharray:none">
          <use
             style="stroke:#000000;stroke-width:1.41732275;stroke-linecap:butt;stroke-linejoin:round;stroke-miterlimit:4;stroke-dasharray:none"
             x="992.81458"
             xlink:href="#m41ff246f43"
             y="630.50403"
             id="use103"
             width="100%"
             height="100%" />
        </g>
      </g>
      <g
         id="text_5"
         style="stroke-linecap:butt;stroke-linejoin:round"
         transform="matrix(2.5,0,0,2.5,-1489.1926,-953.67718)">
        <!-- $0.4$ -->
        <defs
           id="defs109">
          <path
             d="M 47.203125,23.390625 H 37 V 68 H 32.59375 L 1.203125,23.390625 V 17 h 28.09375 V 0 H 37 v 17 h 10.203125 z m -18,0 h -24 l 24,34.375 z"
             id="Nimbus_Roman_No9_L_Regular-52"
             inkscape:connector-curvature="0"
             style="stroke-linecap:butt;stroke-linejoin:round" />
        </defs>
        <g
           transform="matrix(0.1,0,0,-0.1,986.45345,644.25858)"
           id="g117"
           style="stroke-linecap:butt;stroke-linejoin:round">
          <use
             transform="scale(0.996264)"
             xlink:href="#Nimbus_Roman_No9_L_Regular-48"
             id="use111"
             style="stroke-linecap:butt;stroke-linejoin:round"
             x="0"
             y="0"
             width="100%"
             height="100%" />
          <use
             transform="matrix(0.996264,0,0,0.996264,49.8132,0)"
             xlink:href="#CMMI10-58"
             id="use113"
             style="stroke-linecap:butt;stroke-linejoin:round"
             x="0"
             y="0"
             width="100%"
             height="100%" />
          <use
             transform="matrix(0.996264,0,0,0.996264,77.408707,0)"
             xlink:href="#Nimbus_Roman_No9_L_Regular-52"
             id="use115"
             style="stroke-linecap:butt;stroke-linejoin:round"
             x="0"
             y="0"
             width="100%"
             height="100%" />
        </g>
      </g>
      <g
         id="line2d_11"
         style="stroke-width:1.41732275;stroke-linecap:butt;stroke-linejoin:round;stroke-miterlimit:4;stroke-dasharray:none">
        <path
           clip-path="url(#p15241815d0)"
           d="M 1193.8909,630.504 V 70.056"
           style="fill:none;stroke:#b0b0b0;stroke-width:1.41732275;stroke-linecap:square;stroke-linejoin:round;stroke-miterlimit:4;stroke-dasharray:none"
           id="path121"
           inkscape:connector-curvature="0" />
      </g>
      <g
         id="line2d_12"
         style="stroke-width:1.41732275;stroke-linecap:butt;stroke-linejoin:round;stroke-miterlimit:4;stroke-dasharray:none">
        <g
           id="g126"
           style="stroke-width:1.41732275;stroke-linecap:butt;stroke-linejoin:round;stroke-miterlimit:4;stroke-dasharray:none">
          <use
             style="stroke:#000000;stroke-width:1.41732275;stroke-linecap:butt;stroke-linejoin:round;stroke-miterlimit:4;stroke-dasharray:none"
             x="1193.8909"
             xlink:href="#m41ff246f43"
             y="630.50403"
             id="use124"
             width="100%"
             height="100%" />
        </g>
      </g>
      <g
         id="text_6"
         style="stroke-linecap:butt;stroke-linejoin:round"
         transform="matrix(2.5,0,0,2.5,-1790.5526,-953.63282)">
        <!-- $0.5$ -->
        <defs
           id="defs130">
          <path
             d="m 18.09375,58.09375 h 19.609375 c 1.59375,0 2,0.203125 2.296875,0.890625 l 3.796875,8.90625 -0.890625,0.703125 C 41.40625,66.5 40.40625,66 38.296875,66 H 17.40625 L 6.5,42.453125 C 6.40625,42.265625 6.40625,42.15625 6.40625,41.96875 c 0,-0.5 0.390625,-0.796875 1.1875,-0.796875 3.203125,0 7.203125,-0.6875 11.3125,-1.984375 11.5,-3.65625 16.796875,-9.78125 16.796875,-19.578125 0,-9.5 -6.109375,-16.921875 -13.90625,-16.921875 -2,0 -3.703125,0.703125 -6.703125,2.875 -3.1875,2.28125 -5.5,3.265625 -7.59375,3.265625 -2.90625,0 -4.296875,-1.1875 -4.296875,-3.65625 C 3.203125,1.390625 7.90625,-1 15.40625,-1 23.796875,-1 31,1.6875 36,6.75 c 4.59375,4.453125 6.703125,10.09375 6.703125,17.609375 0,7.125 -1.90625,11.671875 -6.90625,16.609375 -4.390625,4.359375 -10.09375,6.640625 -21.890625,8.71875 z"
             id="Nimbus_Roman_No9_L_Regular-53"
             inkscape:connector-curvature="0"
             style="stroke-linecap:butt;stroke-linejoin:round" />
        </defs>
        <g
           transform="matrix(0.1,0,0,-0.1,1187.5298,644.25858)"
           id="g138"
           style="stroke-linecap:butt;stroke-linejoin:round">
          <use
             transform="scale(0.996264)"
             xlink:href="#Nimbus_Roman_No9_L_Regular-48"
             id="use132"
             style="stroke-linecap:butt;stroke-linejoin:round"
             x="0"
             y="0"
             width="100%"
             height="100%" />
          <use
             transform="matrix(0.996264,0,0,0.996264,49.8132,0)"
             xlink:href="#CMMI10-58"
             id="use134"
             style="stroke-linecap:butt;stroke-linejoin:round"
             x="0"
             y="0"
             width="100%"
             height="100%" />
          <use
             transform="matrix(0.996264,0,0,0.996264,77.408707,0)"
             xlink:href="#Nimbus_Roman_No9_L_Regular-53"
             id="use136"
             style="stroke-linecap:butt;stroke-linejoin:round"
             x="0"
             y="0"
             width="100%"
             height="100%" />
        </g>
      </g>
      <g
         style="stroke-linecap:butt;stroke-linejoin:round"
         id="text_7"
         transform="matrix(2.5,0,0,2.5,-1036.1814,-955.02885)">
        <!-- Time $(ms)$ -->
        <defs
           id="defs150">
          <path
             style="stroke-linecap:butt;stroke-linejoin:round"
             inkscape:connector-curvature="0"
             id="Nimbus_Roman_No9_L_Regular-84"
             d="m 25.40625,61.796875 v -49.84375 c 0,-8.46875 -1.109375,-9.5625 -9.40625,-10.0625 V 0 H 45.203125 V 1.890625 C 37,2.296875 35.59375,3.59375 35.59375,10.859375 v 50.9375 H 41 C 52.40625,61.796875 54.59375,60 56.90625,49.03125 h 2.390625 L 58.703125,66 H 2.296875 L 1.703125,49.03125 H 4.09375 C 6.5,59.90625 8.796875,61.796875 20,61.796875 Z" />
          <path
             style="stroke-linecap:butt;stroke-linejoin:round"
             inkscape:connector-curvature="0"
             id="Nimbus_Roman_No9_L_Regular-105"
             d="M 17.5,46 2,40.5 V 39 l 0.796875,0.09375 c 1.203125,0.203125 2.5,0.296875 3.40625,0.296875 2.390625,0 3.296875,-1.59375 3.296875,-6 V 10.1875 C 9.5,3 8.5,1.890625 1.59375,1.5 V 0 H 25.296875 V 1.5 C 18.703125,2 17.90625,3 17.90625,10.1875 v 35.5 z m -4.703125,22 c -2.703125,0 -5,-2.3125 -5,-5.109375 0,-2.796875 2.203125,-5.09375 5,-5.09375 2.90625,0 5.203125,2.1875 5.203125,5.09375 C 18,65.6875 15.703125,68 12.796875,68 Z" />
          <path
             style="stroke-linecap:butt;stroke-linejoin:round"
             inkscape:connector-curvature="0"
             id="Nimbus_Roman_No9_L_Regular-109"
             d="M 1.90625,39.796875 C 3.203125,40.09375 4,40.1875 5.09375,40.1875 c 2.609375,0 3.5,-1.59375 3.5,-6.390625 V 8.5 c 0,-5.40625 -1.390625,-6.90625 -7,-7 V 0 H 23.796875 V 1.5 C 18.5,1.6875 17,2.796875 17,6.6875 v 28.203125 c 0,0.203125 0.796875,1.203125 1.5,1.90625 2.5,2.296875 6.796875,4 10.296875,4 4.40625,0 6.609375,-3.5 6.609375,-10.5 V 8.59375 C 35.40625,3 34.296875,1.890625 28.59375,1.5 V 0 H 51 v 1.5 c -5.703125,0.09375 -7.203125,1.796875 -7.203125,8 v 25.1875 c 3,4.3125 6.296875,6.109375 10.90625,6.109375 5.703125,0 7.5,-2.703125 7.5,-11 V 8.6875 C 62.203125,3 61.40625,2.1875 55.59375,1.5 V 0 H 77.5 v 1.5 l -2.59375,0.1875 c -3,0.203125 -4.3125,2 -4.3125,5.90625 V 28.1875 C 70.59375,40 66.703125,46 59,46 53.203125,46 48.09375,43.390625 42.703125,37.59375 40.90625,43.296875 37.5,46 32.09375,46 c -4.390625,0 -7.1875,-1.40625 -15.5,-7.703125 v 7.5 L 15.90625,46 c -5.109375,-1.90625 -8.5,-3.015625 -14,-4.515625 z" />
          <path
             style="stroke-linecap:butt;stroke-linejoin:round"
             inkscape:connector-curvature="0"
             id="Nimbus_Roman_No9_L_Regular-101"
             d="M 40.796875,16.4375 C 36,8.8125 31.703125,5.890625 25.296875,5.890625 c -5.703125,0 -10,2.921875 -12.890625,8.640625 -1.8125,3.8125 -2.5,7.125 -2.703125,13.265625 H 40.5 c -0.796875,6.46875 -1.796875,9.34375 -4.296875,12.515625 -3,3.578125 -7.609375,5.6875 -12.796875,5.6875 -5,0 -9.703125,-1.8125 -13.5,-5.1875 C 5.203125,36.734375 2.5,29.6875 2.5,21.46875 2.5,7.59375 9.703125,-1 21.203125,-1 c 9.5,0 17,5.890625 21.203125,16.734375 z M 9.90625,31 C 11,38.71875 14.40625,42.390625 20.5,42.390625 c 6.09375,0 8.5,-2.78125 9.796875,-11.390625 z" />
          <path
             style="stroke-linecap:butt;stroke-linejoin:round"
             inkscape:connector-curvature="0"
             id="CMR10-40"
             d="m 33.09375,-24 c 0,0.296875 0,0.5 -1.6875,2.1875 -12.5,12.609375 -15.703125,31.5 -15.703125,46.8125 0,17.390625 3.796875,34.796875 16.09375,47.296875 C 33.09375,73.5 33.09375,73.6875 33.09375,74 c 0,0.6875 -0.390625,1 -1,1 -1,0 -10,-6.796875 -15.890625,-19.5 C 11.09375,44.5 9.90625,33.390625 9.90625,25 9.90625,17.1875 11,5.09375 16.5,-6.203125 22.5,-18.5 31.09375,-25 32.09375,-25 c 0.609375,0 1,0.296875 1,1 z" />
          <path
             style="stroke-linecap:butt;stroke-linejoin:round"
             inkscape:connector-curvature="0"
             id="Nimbus_Roman_No9_L_Regular_Italic-109"
             d="m 68.90625,11.59375 c -1,-1.203125 -1.8125,-2.203125 -2.109375,-2.609375 C 64,5.390625 61.90625,3.6875 60.40625,3.6875 c -0.8125,0 -1.3125,0.609375 -1.3125,1.609375 0,0.5 0.40625,2.09375 1,4.5 l 6.8125,25.09375 c 0.09375,0.40625 0.296875,2.203125 0.296875,2.796875 0,3.609375 -2.5,6.3125 -5.90625,6.3125 C 59.40625,44 57.40625,43.296875 55,41.796875 c -4.90625,-3.203125 -9,-8 -15.90625,-19 2.5,7.59375 4,13.296875 4,15.1875 0,3.5 -2.296875,6.015625 -5.6875,6.015625 -6.109375,0 -13.109375,-6.609375 -22.3125,-21.109375 l 5.8125,20.90625 L 20.59375,44 C 15,42.796875 12.90625,42.390625 4.59375,40.890625 v -1.59375 h 2.5 C 9.703125,39.296875 11,38.59375 11,37.09375 11,35.984375 8.703125,26.890625 5.09375,14.1875 2.796875,6 2.5,5 1.203125,-0.109375 h 7.5 C 13.5,15.796875 15,19.484375 18.40625,24.6875 24,33.1875 30,38.796875 33.40625,38.796875 c 1.296875,0 2,-0.90625 2,-2.5 0,-0.90625 -3.203125,-13 -9.5,-36.40625 h 7.5 c 4,15.59375 6,20.59375 11.09375,27.703125 4.90625,6.796875 9.90625,11.203125 12.796875,11.203125 1.109375,0 2,-1 2,-2.109375 0,-0.5 -0.203125,-1.703125 -0.703125,-3.5 l -5.796875,-23 C 51.90625,6.5 51.5,4.59375 51.5,3.59375 c 0,-3 1.40625,-4.59375 4,-4.59375 4.703125,0 9.09375,3.296875 14.40625,10.6875 l 0.5,0.703125 z" />
          <path
             style="stroke-linecap:butt;stroke-linejoin:round"
             inkscape:connector-curvature="0"
             id="Nimbus_Roman_No9_L_Regular_Italic-115"
             d="M 3.59375,14.890625 1.59375,-1 H 3.203125 C 4,0.59375 4.59375,1.09375 5.59375,1.09375 6.703125,1.09375 8.5,0.6875 10.5,0.1875 12.703125,-0.703125 14.40625,-1 16,-1 c 8.40625,0 14.40625,5.375 14.40625,12.9375 0,3.78125 -2.109375,8.15625 -6.8125,13.9375 -3.796875,4.671875 -5.390625,7.75 -5.390625,10.4375 0,3.28125 2.09375,5.375 5.59375,5.375 C 29,41.6875 32,38 33,30.25 h 1.59375 l 2,13.75 h -1.390625 c -0.796875,-1.40625 -1.609375,-1.8125 -3,-1.8125 C 31.5,42.1875 30.5,42.390625 28.59375,42.890625 26.09375,43.796875 24.59375,44 23,44 15.703125,44 10.90625,39.703125 10.90625,33.03125 10.90625,29.84375 13,25.5625 17.203125,20.203125 21.09375,15.125 22.796875,11.640625 22.796875,8.75 c 0,-4.46875 -3,-7.65625 -7.390625,-7.65625 -5.5,0 -8.609375,4.078125 -10.203125,13.53125 z" />
          <path
             style="stroke-linecap:butt;stroke-linejoin:round"
             inkscape:connector-curvature="0"
             id="CMR10-41"
             d="m 28.90625,25 c 0,7.796875 -1.109375,19.890625 -6.609375,31.203125 C 16.296875,68.5 7.703125,75 6.703125,75 c -0.609375,0 -1,-0.40625 -1,-1 0,-0.3125 0,-0.5 1.890625,-2.296875 9.8125,-9.90625 15.5,-25.8125 15.5,-46.703125 C 23.09375,7.890625 19.40625,-9.703125 7,-22.3125 5.703125,-23.5 5.703125,-23.703125 5.703125,-24 c 0,-0.609375 0.390625,-1 1,-1 1,0 10,6.796875 15.890625,19.5 5.109375,11 6.3125,22.09375 6.3125,30.5 z" />
        </defs>
        <g
           style="stroke-linecap:butt;stroke-linejoin:round"
           id="g168"
           transform="matrix(0.1,0,0,-0.1,670.20954,657.88739)">
          <use
             height="100%"
             width="100%"
             y="0"
             x="0"
             style="stroke-linecap:butt;stroke-linejoin:round"
             id="use152"
             xlink:href="#Nimbus_Roman_No9_L_Regular-84"
             transform="scale(0.996264)" />
          <use
             height="100%"
             width="100%"
             y="0"
             x="0"
             style="stroke-linecap:butt;stroke-linejoin:round"
             id="use154"
             xlink:href="#Nimbus_Roman_No9_L_Regular-105"
             transform="matrix(0.996264,0,0,0.996264,57.384904,0)" />
          <use
             height="100%"
             width="100%"
             y="0"
             x="0"
             style="stroke-linecap:butt;stroke-linejoin:round"
             id="use156"
             xlink:href="#Nimbus_Roman_No9_L_Regular-109"
             transform="matrix(0.996264,0,0,0.996264,85.080074,0)" />
          <use
             height="100%"
             width="100%"
             y="0"
             x="0"
             style="stroke-linecap:butt;stroke-linejoin:round"
             id="use158"
             xlink:href="#Nimbus_Roman_No9_L_Regular-101"
             transform="matrix(0.996264,0,0,0.996264,162.58844,0)" />
          <use
             height="100%"
             width="100%"
             y="0"
             x="0"
             style="stroke-linecap:butt;stroke-linejoin:round"
             id="use160"
             xlink:href="#CMR10-40"
             transform="matrix(0.996264,0,0,0.996264,231.72861,0)" />
          <use
             height="100%"
             width="100%"
             y="0"
             x="0"
             style="stroke-linecap:butt;stroke-linejoin:round"
             id="use162"
             xlink:href="#Nimbus_Roman_No9_L_Regular_Italic-109"
             transform="matrix(0.996264,0,0,0.996264,270.38246,0)" />
          <use
             height="100%"
             width="100%"
             y="0"
             x="0"
             style="stroke-linecap:butt;stroke-linejoin:round"
             id="use164"
             xlink:href="#Nimbus_Roman_No9_L_Regular_Italic-115"
             transform="matrix(0.996264,0,0,0.996264,342.31244,0)" />
          <use
             height="100%"
             width="100%"
             y="0"
             x="0"
             style="stroke-linecap:butt;stroke-linejoin:round"
             id="use166"
             xlink:href="#CMR10-41"
             transform="matrix(0.996264,0,0,0.996264,381.06615,0)" />
        </g>
      </g>
      <g
         id="line2d_14"
         style="stroke-width:1.41732275;stroke-linecap:butt;stroke-linejoin:round;stroke-miterlimit:4;stroke-dasharray:none">
        <defs
           id="defs176">
          <path
             d="M 0,0 H -3.5"
             id="m9524a0b52c"
             style="stroke:#000000;stroke-width:0.80000001;stroke-linecap:butt;stroke-linejoin:round"
             inkscape:connector-curvature="0" />
        </defs>
        <g
           id="g180"
           style="stroke-width:1.41732275;stroke-linecap:butt;stroke-linejoin:round;stroke-miterlimit:4;stroke-dasharray:none">
          <use
             style="stroke:#000000;stroke-width:1.41732275;stroke-linecap:butt;stroke-linejoin:round;stroke-miterlimit:4;stroke-dasharray:none"
             x="138.24001"
             xlink:href="#m9524a0b52c"
             y="605.02911"
             id="use178"
             width="100%"
             height="100%" />
        </g>
      </g>
      <g
         id="text_8"
         style="stroke-linecap:butt;stroke-linejoin:round"
         transform="matrix(2.5,0,0,2.5,-201.92911,-907.60334)">
        <!-- $0$ -->
        <g
           transform="matrix(0.1,0,0,-0.1,126.25868,608.40638)"
           id="g185"
           style="stroke-linecap:butt;stroke-linejoin:round">
          <use
             transform="scale(0.996264)"
             xlink:href="#Nimbus_Roman_No9_L_Regular-48"
             id="use183"
             style="stroke-linecap:butt;stroke-linejoin:round"
             x="0"
             y="0"
             width="100%"
             height="100%" />
        </g>
      </g>
      <g
         id="line2d_15"
         style="stroke-width:1.41732275;stroke-linecap:butt;stroke-linejoin:round;stroke-miterlimit:4;stroke-dasharray:none">
        <path
           clip-path="url(#p15241815d0)"
           d="M 138.24,520.09305 H 1244.16"
           style="fill:none;stroke:#b0b0b0;stroke-width:1.41732275;stroke-linecap:square;stroke-linejoin:round;stroke-miterlimit:4;stroke-dasharray:none"
           id="path189"
           inkscape:connector-curvature="0" />
      </g>
      <g
         id="line2d_16"
         style="stroke-width:1.41732275;stroke-linecap:butt;stroke-linejoin:round;stroke-miterlimit:4;stroke-dasharray:none">
        <g
           id="g194"
           style="stroke-width:1.41732275;stroke-linecap:butt;stroke-linejoin:round;stroke-miterlimit:4;stroke-dasharray:none">
          <use
             style="stroke:#000000;stroke-width:1.41732275;stroke-linecap:butt;stroke-linejoin:round;stroke-miterlimit:4;stroke-dasharray:none"
             x="138.24001"
             xlink:href="#m9524a0b52c"
             y="520.09308"
             id="use192"
             width="100%"
             height="100%" />
        </g>
      </g>
      <g
         id="text_9"
         style="stroke-linecap:butt;stroke-linejoin:round"
         transform="matrix(2.5,0,0,2.5,-201.70495,-780.15492)">
        <!-- $5$ -->
        <g
           transform="matrix(0.1,0,0,-0.1,126.25868,523.47034)"
           id="g199"
           style="stroke-linecap:butt;stroke-linejoin:round">
          <use
             transform="scale(0.996264)"
             xlink:href="#Nimbus_Roman_No9_L_Regular-53"
             id="use197"
             style="stroke-linecap:butt;stroke-linejoin:round"
             x="0"
             y="0"
             width="100%"
             height="100%" />
        </g>
      </g>
      <g
         id="line2d_17"
         style="stroke-width:1.41732275;stroke-linecap:butt;stroke-linejoin:round;stroke-miterlimit:4;stroke-dasharray:none">
        <path
           clip-path="url(#p15241815d0)"
           d="M 138.24,435.15701 H 1244.16"
           style="fill:none;stroke:#b0b0b0;stroke-width:1.41732275;stroke-linecap:square;stroke-linejoin:round;stroke-miterlimit:4;stroke-dasharray:none"
           id="path203"
           inkscape:connector-curvature="0" />
      </g>
      <g
         id="line2d_18"
         style="stroke-width:1.41732275;stroke-linecap:butt;stroke-linejoin:round;stroke-miterlimit:4;stroke-dasharray:none">
        <g
           id="g208"
           style="stroke-width:1.41732275;stroke-linecap:butt;stroke-linejoin:round;stroke-miterlimit:4;stroke-dasharray:none">
          <use
             style="stroke:#000000;stroke-width:1.41732275;stroke-linecap:butt;stroke-linejoin:round;stroke-miterlimit:4;stroke-dasharray:none"
             x="138.24001"
             xlink:href="#m9524a0b52c"
             y="435.15701"
             id="use206"
             width="100%"
             height="100%" />
        </g>
      </g>
      <g
         id="text_10"
         style="stroke-linecap:butt;stroke-linejoin:round"
         transform="matrix(2.5,0,0,2.5,-198.84225,-652.79522)">
        <!-- $10$ -->
        <g
           transform="matrix(0.1,0,0,-0.1,121.27736,438.5343)"
           id="g215"
           style="stroke-linecap:butt;stroke-linejoin:round">
          <use
             transform="scale(0.996264)"
             xlink:href="#Nimbus_Roman_No9_L_Regular-49"
             id="use211"
             style="stroke-linecap:butt;stroke-linejoin:round"
             x="0"
             y="0"
             width="100%"
             height="100%" />
          <use
             transform="matrix(0.996264,0,0,0.996264,49.8132,0)"
             xlink:href="#Nimbus_Roman_No9_L_Regular-48"
             id="use213"
             style="stroke-linecap:butt;stroke-linejoin:round"
             x="0"
             y="0"
             width="100%"
             height="100%" />
        </g>
      </g>
      <g
         id="line2d_19"
         style="stroke-width:1.41732275;stroke-linecap:butt;stroke-linejoin:round;stroke-miterlimit:4;stroke-dasharray:none">
        <path
           clip-path="url(#p15241815d0)"
           d="M 138.24,350.22097 H 1244.16"
           style="fill:none;stroke:#b0b0b0;stroke-width:1.41732275;stroke-linecap:square;stroke-linejoin:round;stroke-miterlimit:4;stroke-dasharray:none"
           id="path219"
           inkscape:connector-curvature="0" />
      </g>
      <g
         id="line2d_20"
         style="stroke-width:1.41732275;stroke-linecap:butt;stroke-linejoin:round;stroke-miterlimit:4;stroke-dasharray:none">
        <g
           id="g224"
           style="stroke-width:1.41732275;stroke-linecap:butt;stroke-linejoin:round;stroke-miterlimit:4;stroke-dasharray:none">
          <use
             style="stroke:#000000;stroke-width:1.41732275;stroke-linecap:butt;stroke-linejoin:round;stroke-miterlimit:4;stroke-dasharray:none"
             x="138.24001"
             xlink:href="#m9524a0b52c"
             y="350.22098"
             id="use222"
             width="100%"
             height="100%" />
        </g>
      </g>
      <g
         id="text_11"
         style="stroke-linecap:butt;stroke-linejoin:round"
         transform="matrix(2.5,0,0,2.5,-198.55855,-525.3468)">
        <!-- $15$ -->
        <g
           transform="matrix(0.1,0,0,-0.1,121.27736,353.59826)"
           id="g231"
           style="stroke-linecap:butt;stroke-linejoin:round">
          <use
             transform="scale(0.996264)"
             xlink:href="#Nimbus_Roman_No9_L_Regular-49"
             id="use227"
             style="stroke-linecap:butt;stroke-linejoin:round"
             x="0"
             y="0"
             width="100%"
             height="100%" />
          <use
             transform="matrix(0.996264,0,0,0.996264,49.8132,0)"
             xlink:href="#Nimbus_Roman_No9_L_Regular-53"
             id="use229"
             style="stroke-linecap:butt;stroke-linejoin:round"
             x="0"
             y="0"
             width="100%"
             height="100%" />
        </g>
      </g>
      <g
         id="line2d_21"
         style="stroke-width:1.41732275;stroke-linecap:butt;stroke-linejoin:round;stroke-miterlimit:4;stroke-dasharray:none">
        <path
           clip-path="url(#p15241815d0)"
           d="M 138.24,265.28493 H 1244.16"
           style="fill:none;stroke:#b0b0b0;stroke-width:1.41732275;stroke-linecap:square;stroke-linejoin:round;stroke-miterlimit:4;stroke-dasharray:none"
           id="path235"
           inkscape:connector-curvature="0" />
      </g>
      <g
         id="line2d_22"
         style="stroke-width:1.41732275;stroke-linecap:butt;stroke-linejoin:round;stroke-miterlimit:4;stroke-dasharray:none">
        <g
           id="g240"
           style="stroke-width:1.41732275;stroke-linecap:butt;stroke-linejoin:round;stroke-miterlimit:4;stroke-dasharray:none">
          <use
             style="stroke:#000000;stroke-width:1.41732275;stroke-linecap:butt;stroke-linejoin:round;stroke-miterlimit:4;stroke-dasharray:none"
             x="138.24001"
             xlink:href="#m9524a0b52c"
             y="265.28494"
             id="use238"
             width="100%"
             height="100%" />
        </g>
      </g>
      <g
         id="text_12"
         style="stroke-linecap:butt;stroke-linejoin:round"
         transform="matrix(2.5,0,0,2.5,-198.23748,-397.9871)">
        <!-- $20$ -->
        <g
           transform="matrix(0.1,0,0,-0.1,121.27736,268.66222)"
           id="g247"
           style="stroke-linecap:butt;stroke-linejoin:round">
          <use
             transform="scale(0.996264)"
             xlink:href="#Nimbus_Roman_No9_L_Regular-50"
             id="use243"
             style="stroke-linecap:butt;stroke-linejoin:round"
             x="0"
             y="0"
             width="100%"
             height="100%" />
          <use
             transform="matrix(0.996264,0,0,0.996264,49.8132,0)"
             xlink:href="#Nimbus_Roman_No9_L_Regular-48"
             id="use245"
             style="stroke-linecap:butt;stroke-linejoin:round"
             x="0"
             y="0"
             width="100%"
             height="100%" />
        </g>
      </g>
      <g
         id="line2d_23"
         style="stroke-width:1.41732275;stroke-linecap:butt;stroke-linejoin:round;stroke-miterlimit:4;stroke-dasharray:none">
        <path
           clip-path="url(#p15241815d0)"
           d="M 138.24,180.34889 H 1244.16"
           style="fill:none;stroke:#b0b0b0;stroke-width:1.41732275;stroke-linecap:square;stroke-linejoin:round;stroke-miterlimit:4;stroke-dasharray:none"
           id="path251"
           inkscape:connector-curvature="0" />
      </g>
      <g
         id="line2d_24"
         style="stroke-width:1.41732275;stroke-linecap:butt;stroke-linejoin:round;stroke-miterlimit:4;stroke-dasharray:none">
        <g
           id="g256"
           style="stroke-width:1.41732275;stroke-linecap:butt;stroke-linejoin:round;stroke-miterlimit:4;stroke-dasharray:none">
          <use
             style="stroke:#000000;stroke-width:1.41732275;stroke-linecap:butt;stroke-linejoin:round;stroke-miterlimit:4;stroke-dasharray:none"
             x="138.24001"
             xlink:href="#m9524a0b52c"
             y="180.34889"
             id="use254"
             width="100%"
             height="100%" />
        </g>
      </g>
      <g
         id="text_13"
         style="stroke-linecap:butt;stroke-linejoin:round"
         transform="matrix(2.5,0,0,2.5,-197.95378,-270.53868)">
        <!-- $25$ -->
        <g
           transform="matrix(0.1,0,0,-0.1,121.27736,183.72618)"
           id="g263"
           style="stroke-linecap:butt;stroke-linejoin:round">
          <use
             transform="scale(0.996264)"
             xlink:href="#Nimbus_Roman_No9_L_Regular-50"
             id="use259"
             style="stroke-linecap:butt;stroke-linejoin:round"
             x="0"
             y="0"
             width="100%"
             height="100%" />
          <use
             transform="matrix(0.996264,0,0,0.996264,49.8132,0)"
             xlink:href="#Nimbus_Roman_No9_L_Regular-53"
             id="use261"
             style="stroke-linecap:butt;stroke-linejoin:round"
             x="0"
             y="0"
             width="100%"
             height="100%" />
        </g>
      </g>
      <g
         id="line2d_25"
         style="stroke-width:1.41732275;stroke-linecap:butt;stroke-linejoin:round;stroke-miterlimit:4;stroke-dasharray:none">
        <path
           clip-path="url(#p15241815d0)"
           d="M 138.24,95.412846 H 1244.16"
           style="fill:none;stroke:#b0b0b0;stroke-width:1.41732275;stroke-linecap:square;stroke-linejoin:round;stroke-miterlimit:4;stroke-dasharray:none"
           id="path267"
           inkscape:connector-curvature="0" />
      </g>
      <g
         id="line2d_26"
         style="stroke-width:1.41732275;stroke-linecap:butt;stroke-linejoin:round;stroke-miterlimit:4;stroke-dasharray:none">
        <g
           id="g272"
           style="stroke-width:1.41732275;stroke-linecap:butt;stroke-linejoin:round;stroke-miterlimit:4;stroke-dasharray:none">
          <use
             style="stroke:#000000;stroke-width:1.41732275;stroke-linecap:butt;stroke-linejoin:round;stroke-miterlimit:4;stroke-dasharray:none"
             x="138.24001"
             xlink:href="#m9524a0b52c"
             y="95.412849"
             id="use270"
             width="100%"
             height="100%" />
        </g>
      </g>
      <g
         id="text_14"
         style="stroke-linecap:butt;stroke-linejoin:round"
         transform="matrix(2.5,0,0,2.5,-198.33439,-143.17898)">
        <!-- $30$ -->
        <g
           transform="matrix(0.1,0,0,-0.1,121.27736,98.790135)"
           id="g279"
           style="stroke-linecap:butt;stroke-linejoin:round">
          <use
             transform="scale(0.996264)"
             xlink:href="#Nimbus_Roman_No9_L_Regular-51"
             id="use275"
             style="stroke-linecap:butt;stroke-linejoin:round"
             x="0"
             y="0"
             width="100%"
             height="100%" />
          <use
             transform="matrix(0.996264,0,0,0.996264,49.8132,0)"
             xlink:href="#Nimbus_Roman_No9_L_Regular-48"
             id="use277"
             style="stroke-linecap:butt;stroke-linejoin:round"
             x="0"
             y="0"
             width="100%"
             height="100%" />
        </g>
      </g>
      <g
         style="stroke-linecap:butt;stroke-linejoin:round"
         id="text_15"
         transform="matrix(2.5,0,0,2.5,-203.02424,-526.24755)">
        <!-- Output voltage $V_o$ $(V)$ -->
        <defs
           id="defs294">
          <path
             style="stroke-linecap:butt;stroke-linejoin:round"
             inkscape:connector-curvature="0"
             id="Nimbus_Roman_No9_L_Regular-79"
             d="M 36.09375,68 C 17,68 3.40625,53.59375 3.40625,33.5 3.40625,24.09375 6.59375,15 12,9.1875 17.796875,2.890625 26.703125,-1 35.5,-1 55.203125,-1 68.796875,13 68.796875,33.09375 68.796875,43 65.90625,51.5 60.40625,57.5 54.09375,64.390625 45.703125,68 36.09375,68 Z m 0,-3.609375 c 4.609375,0 9.203125,-1.796875 12.8125,-5 5.390625,-4.890625 8.5,-14.296875 8.5,-26.203125 0,-5.890625 -1.3125,-12.796875 -3.3125,-18 -0.890625,-2.5 -2.59375,-5 -4.890625,-7.296875 -3.5,-3.5 -8,-5.296875 -13.296875,-5.296875 -4.609375,0 -9.109375,1.796875 -12.609375,4.90625 -5.203125,4.59375 -8.5,14.6875 -8.5,25.796875 0,10.203125 2.796875,19.90625 7,24.59375 3.90625,4.3125 8.796875,6.5 14.296875,6.5 z" />
          <path
             style="stroke-linecap:butt;stroke-linejoin:round"
             inkscape:connector-curvature="0"
             id="Nimbus_Roman_No9_L_Regular-117"
             d="m 47.90625,4.984375 h -0.5 c -4.609375,0 -5.703125,1.109375 -5.703125,5.703125 V 45 H 25.90625 V 43.296875 C 32.09375,43 33.296875,42 33.296875,37 V 13.5 c 0,-2.8125 -0.5,-4.203125 -1.890625,-5.3125 C 28.703125,6 25.59375,4.796875 22.59375,4.796875 18.703125,4.796875 15.5,8.1875 15.5,12.390625 V 45 H 0.90625 v -1.40625 c 4.796875,-0.296875 6.1875,-1.796875 6.1875,-6.40625 V 12 c 0,-7.90625 4.8125,-13 12.109375,-13 C 22.90625,-1 26.796875,0.59375 29.5,3.296875 L 33.796875,7.59375 V -0.703125 L 34.203125,-1 c 5,2 8.59375,3.09375 13.703125,4.5 z" />
          <path
             style="stroke-linecap:butt;stroke-linejoin:round"
             inkscape:connector-curvature="0"
             id="Nimbus_Roman_No9_L_Regular-116"
             d="M 25.5,45 H 15.40625 v 11.59375 c 0,1 -0.109375,1.296875 -0.703125,1.296875 C 14,57 13.40625,56.09375 12.703125,55.09375 8.90625,49.59375 4.59375,44.796875 3,44.390625 1.90625,43.6875 1.296875,42.984375 1.296875,42.484375 c 0,-0.296875 0.109375,-0.5 0.40625,-0.6875 H 7 V 11.6875 C 7,3.296875 10,-1 15.90625,-1 c 4.890625,0 8.6875,2.390625 12,7.59375 l -1.3125,1.09375 c -2.09375,-2.5 -3.796875,-3.5 -6,-3.5 -3.6875,0 -5.1875,2.703125 -5.1875,9 V 41.796875 H 25.5 Z" />
          <path
             style="stroke-linecap:butt;stroke-linejoin:round"
             inkscape:connector-curvature="0"
             id="Nimbus_Roman_No9_L_Regular-112"
             d="m 0.90625,39.296875 c 0.890625,0.09375 1.59375,0.09375 2.5,0.09375 3.390625,0 4.09375,-1 4.09375,-5.6875 v -46.8125 C 7.5,-18.3125 6.40625,-19.40625 0.5,-20 v -1.703125 H 24.703125 V -20 c -7.5,0.09375 -8.796875,1.203125 -8.796875,7.53125 V 3.296875 C 19.40625,0 21.796875,-1 26,-1 37.796875,-1 47,10.1875 47,24.6875 47,37.09375 40,46 30.296875,46 c -5.59375,0 -10,-2.515625 -14.390625,-7.90625 v 7.703125 L 15.296875,46 C 9.90625,43.890625 6.40625,42.59375 0.90625,40.890625 Z m 15,-5.90625 c 0,3 5.59375,6.59375 10.1875,6.59375 7.40625,0 12.3125,-7.59375 12.3125,-19.1875 C 38.40625,9.6875 33.5,2.1875 26.296875,2.1875 21.59375,2.1875 15.90625,5.796875 15.90625,8.796875 Z" />
          <path
             style="stroke-linecap:butt;stroke-linejoin:round"
             inkscape:connector-curvature="0"
             id="Nimbus_Roman_No9_L_Regular-118"
             d="M 47.703125,45 H 33.796875 V 43.484375 C 37,43.1875 38.5,42.203125 38.5,40.3125 c 0,-0.984375 -0.203125,-1.96875 -0.59375,-2.96875 L 28,11.6875 17.796875,37.046875 C 17.203125,38.4375 16.90625,39.828125 16.90625,40.71875 16.90625,42.5 18,43.1875 21.5,43.484375 V 45 H 1.90625 v -1.515625 c 3.796875,-0.1875 4.5,-1.1875 9.09375,-11.390625 L 23,3.671875 C 23.203125,3.078125 23.5,2.375 23.796875,1.59375 24.40625,-0.203125 25,-1 25.59375,-1 c 0.609375,0 1.3125,1.296875 2.8125,4.96875 l 12.796875,31.796875 c 2.890625,6.734375 3.5,7.421875 6.5,7.71875 z" />
          <path
             style="stroke-linecap:butt;stroke-linejoin:round"
             inkscape:connector-curvature="0"
             id="Nimbus_Roman_No9_L_Regular-111"
             d="M 25,46 C 12,46 2.90625,36.390625 2.90625,22.59375 2.90625,9.09375 12.203125,-1 24.796875,-1 37.40625,-1 47,9.59375 47,23.390625 47,36.5 37.796875,46 25,46 Z M 23.703125,43.1875 C 32.09375,43.1875 38,33.59375 38,19.890625 38,8.59375 33.5,1.796875 26,1.796875 22.09375,1.796875 18.40625,4.1875 16.296875,8.1875 13.5,13.390625 11.90625,20.390625 11.90625,27.5 c 0,9.5 4.6875,15.6875 11.796875,15.6875 z" />
          <path
             style="stroke-linecap:butt;stroke-linejoin:round"
             inkscape:connector-curvature="0"
             id="Nimbus_Roman_No9_L_Regular-108"
             d="M 1.90625,62.296875 H 2.5 C 3.59375,62.390625 4.796875,62.5 5.59375,62.5 c 3.203125,0 4.203125,-1.40625 4.203125,-6.109375 V 8.6875 C 9.796875,3.296875 8.40625,2 2.09375,1.5 V 0 h 23.609375 v 1.5 c -6.296875,0.390625 -7.5,1.390625 -7.5,6.890625 V 68.09375 l -0.40625,0.203125 c -5.203125,-1.703125 -9,-2.703125 -15.890625,-4.40625 z" />
          <path
             style="stroke-linecap:butt;stroke-linejoin:round"
             inkscape:connector-curvature="0"
             id="Nimbus_Roman_No9_L_Regular-97"
             d="M 44.203125,6.59375 C 42.5,5.1875 41.296875,4.6875 39.796875,4.6875 c -2.296875,0 -3,1.40625 -3,5.8125 V 30 c 0,5.1875 -0.5,8.09375 -2,10.5 -2.203125,3.59375 -6.5,5.5 -12.390625,5.5 C 13,46 5.59375,41.09375 5.59375,34.796875 5.59375,32.5 7.59375,30.5 9.90625,30.5 c 2.390625,0 4.5,2 4.5,4.1875 0,0.40625 -0.109375,0.90625 -0.203125,1.609375 C 14,37.1875 13.90625,38 13.90625,38.6875 c 0,2.703125 3.1875,4.90625 7.1875,4.90625 4.90625,0 7.609375,-2.90625 7.609375,-8.296875 V 29.1875 C 13.296875,23 11.59375,22.1875 7.296875,18.390625 5.09375,16.390625 3.703125,13 3.703125,9.6875 3.703125,3.390625 8.09375,-1 14.203125,-1 c 4.390625,0 8.5,2.09375 14.59375,7.296875 C 29.296875,1.09375 31.09375,-1 35.203125,-1 c 3.390625,0 5.5,1.1875 9,5 z m -15.5,5.703125 c 0,-3.109375 -0.5,-4 -2.609375,-5.203125 C 23.703125,5.6875 20.90625,4.796875 18.796875,4.796875 15.296875,4.796875 12.5,8.1875 12.5,12.5 v 0.390625 c 0,5.90625 4.09375,9.5 16.203125,13.90625 z" />
          <path
             style="stroke-linecap:butt;stroke-linejoin:round"
             inkscape:connector-curvature="0"
             id="Nimbus_Roman_No9_L_Regular-103"
             d="M 47,38.09375 V 42 h -7.703125 c -2,0 -3.5,0.71875 -5.5,1.6875 l -2.203125,0.796875 c -2.6875,1 -5.390625,1.515625 -8,1.515625 -9.296875,0 -16.6875,-7.90625 -16.6875,-16.671875 0,-6.0625 2.6875,-9.71875 9.296875,-12.9375 C 14.296875,14.59375 12.5,12.90625 11.90625,12.40625 8.59375,9.53125 7.296875,7.546875 7.296875,5.5625 7.296875,3.484375 8.5,2.296875 12.59375,0.296875 5.5,-4.9375 2.796875,-8.265625 2.796875,-11.984375 c 0,-5.328125 7.796875,-9.71875 17.296875,-9.71875 7.5,0 15.3125,2.59375 20.5,6.796875 3.8125,3.125 5.5,6.34375 5.5,10.171875 C 46.09375,1.5 41.40625,5.671875 34,5.96875 L 21.09375,6.5625 c -5.296875,0.1875 -7.796875,1.09375 -7.796875,2.671875 0,1.984375 3.296875,5.46875 6,6.265625 0.90625,-0.109375 1.609375,-0.203125 1.90625,-0.203125 C 23.09375,15.09375 24.40625,15 25,15 c 3.703125,0 7.703125,1.5 10.796875,4.125 3.296875,2.703125 4.796875,6.0625 4.796875,10.875 0,2.796875 -0.5,5.015625 -1.890625,8.09375 z M 14.703125,0 C 18,-0.71875 26,-1.3125 30.90625,-1.3125 40,-1.3125 43.296875,-2.625 43.296875,-6.25 c 0,-5.828125 -7.59375,-9.75 -18.890625,-9.75 -8.8125,0 -14.609375,2.90625 -14.609375,7.34375 0,2.3125 0.703125,3.625 4.90625,8.65625 z m 0.5,33.28125 c 0,5.703125 2.796875,9.90625 7.390625,9.90625 3.109375,0 5.703125,-2.390625 7.3125,-5.390625 1.796875,-3.359375 3,-7.796875 3,-11.546875 0,-5.390625 -2.90625,-8.75 -7.5,-8.75 -6,0 -10.203125,6.25 -10.203125,15.484375 z" />
          <path
             style="stroke-linecap:butt;stroke-linejoin:round"
             inkscape:connector-curvature="0"
             id="Nimbus_Roman_No9_L_Regular_Italic-86"
             d="m 68.796875,65 h -18.59375 v -1.609375 c 4.5,-0.5 6.296875,-1.5 6.296875,-3.390625 0,-1.90625 -1.90625,-6.1875 -5.203125,-11.890625 L 30.703125,12.578125 24.09375,56.796875 C 24,57.296875 24,57.703125 24,58.296875 c 0,3.390625 1.40625,4.390625 7.703125,5.09375 V 65 H 7.59375 v -1.609375 c 5.609375,-0.703125 5.8125,-1 7.90625,-13.484375 L 24,-2 h 1.90625 l 37.296875,61.390625 c 1.703125,2.703125 3.296875,3.90625 5.59375,4 z" />
          <path
             style="stroke-linecap:butt;stroke-linejoin:round"
             inkscape:connector-curvature="0"
             id="Nimbus_Roman_No9_L_Regular_Italic-111"
             d="M 32.5,44 C 17.5,44 2.703125,28.5625 2.703125,12.9375 2.703125,4.375 8.296875,-1 17.40625,-1 c 6.59375,0 13,2.984375 18.796875,8.65625 6.59375,6.46875 10.59375,14.9375 10.59375,22.390625 C 46.796875,38.3125 41,44 32.5,44 Z m -1.203125,-2.109375 c 4.296875,0 7.109375,-3.671875 7.109375,-9.34375 0,-7.265625 -3.3125,-17.21875 -7.703125,-23.6875 C 27,3.578125 23.203125,1.09375 18.90625,1.09375 c -4.703125,0 -7.8125,3.578125 -7.8125,9.0625 0,7.359375 2.90625,16.109375 7.8125,23.1875 3.890625,5.5625 8.09375,8.546875 12.390625,8.546875 z" />
        </defs>
        <g
           style="stroke-linecap:butt;stroke-linejoin:round"
           id="g332"
           transform="matrix(0,-0.1,-0.1,0,115.12053,394.35377)">
          <use
             height="100%"
             width="100%"
             y="0"
             x="0"
             style="stroke-linecap:butt;stroke-linejoin:round"
             id="use296"
             xlink:href="#Nimbus_Roman_No9_L_Regular-79"
             transform="matrix(0.996264,0,0,0.996264,0,14.943915)" />
          <use
             height="100%"
             width="100%"
             y="0"
             x="0"
             style="stroke-linecap:butt;stroke-linejoin:round"
             id="use298"
             xlink:href="#Nimbus_Roman_No9_L_Regular-117"
             transform="matrix(0.996264,0,0,0.996264,71.929985,14.943915)" />
          <use
             height="100%"
             width="100%"
             y="0"
             x="0"
             style="stroke-linecap:butt;stroke-linejoin:round"
             id="use300"
             xlink:href="#Nimbus_Roman_No9_L_Regular-116"
             transform="matrix(0.996264,0,0,0.996264,121.74318,14.943915)" />
          <use
             height="100%"
             width="100%"
             y="0"
             x="0"
             style="stroke-linecap:butt;stroke-linejoin:round"
             id="use302"
             xlink:href="#Nimbus_Roman_No9_L_Regular-112"
             transform="matrix(0.996264,0,0,0.996264,149.43835,14.943915)" />
          <use
             height="100%"
             width="100%"
             y="0"
             x="0"
             style="stroke-linecap:butt;stroke-linejoin:round"
             id="use304"
             xlink:href="#Nimbus_Roman_No9_L_Regular-117"
             transform="matrix(0.996264,0,0,0.996264,199.25155,14.943915)" />
          <use
             height="100%"
             width="100%"
             y="0"
             x="0"
             style="stroke-linecap:butt;stroke-linejoin:round"
             id="use306"
             xlink:href="#Nimbus_Roman_No9_L_Regular-116"
             transform="matrix(0.996264,0,0,0.996264,249.06476,14.943915)" />
          <use
             height="100%"
             width="100%"
             y="0"
             x="0"
             style="stroke-linecap:butt;stroke-linejoin:round"
             id="use308"
             xlink:href="#Nimbus_Roman_No9_L_Regular-118"
             transform="matrix(0.996264,0,0,0.996264,301.66653,14.943915)" />
          <use
             height="100%"
             width="100%"
             y="0"
             x="0"
             style="stroke-linecap:butt;stroke-linejoin:round"
             id="use310"
             xlink:href="#Nimbus_Roman_No9_L_Regular-111"
             transform="matrix(0.996264,0,0,0.996264,349.48771,14.943915)" />
          <use
             height="100%"
             width="100%"
             y="0"
             x="0"
             style="stroke-linecap:butt;stroke-linejoin:round"
             id="use312"
             xlink:href="#Nimbus_Roman_No9_L_Regular-108"
             transform="matrix(0.996264,0,0,0.996264,399.30092,14.943915)" />
          <use
             height="100%"
             width="100%"
             y="0"
             x="0"
             style="stroke-linecap:butt;stroke-linejoin:round"
             id="use314"
             xlink:href="#Nimbus_Roman_No9_L_Regular-116"
             transform="matrix(0.996264,0,0,0.996264,426.99608,14.943915)" />
          <use
             height="100%"
             width="100%"
             y="0"
             x="0"
             style="stroke-linecap:butt;stroke-linejoin:round"
             id="use316"
             xlink:href="#Nimbus_Roman_No9_L_Regular-97"
             transform="matrix(0.996264,0,0,0.996264,454.69125,14.943915)" />
          <use
             height="100%"
             width="100%"
             y="0"
             x="0"
             style="stroke-linecap:butt;stroke-linejoin:round"
             id="use318"
             xlink:href="#Nimbus_Roman_No9_L_Regular-103"
             transform="matrix(0.996264,0,0,0.996264,498.92482,14.943915)" />
          <use
             height="100%"
             width="100%"
             y="0"
             x="0"
             style="stroke-linecap:butt;stroke-linejoin:round"
             id="use320"
             xlink:href="#Nimbus_Roman_No9_L_Regular-101"
             transform="matrix(0.996264,0,0,0.996264,548.73802,14.943915)" />
          <use
             height="100%"
             width="100%"
             y="0"
             x="0"
             style="stroke-linecap:butt;stroke-linejoin:round"
             id="use322"
             xlink:href="#Nimbus_Roman_No9_L_Regular_Italic-86"
             transform="matrix(0.996264,0,0,0.996264,612.89684,14.943915)" />
          <use
             height="100%"
             width="100%"
             y="0"
             x="0"
             style="stroke-linecap:butt;stroke-linejoin:round"
             id="use324"
             xlink:href="#Nimbus_Roman_No9_L_Regular_Italic-111"
             transform="matrix(0.737241,0,0,0.737241,668.78715,0)" />
          <use
             height="100%"
             width="100%"
             y="0"
             x="0"
             style="stroke-linecap:butt;stroke-linejoin:round"
             id="use326"
             xlink:href="#CMR10-40"
             transform="matrix(0.996264,0,0,0.996264,731.05393,14.943915)" />
          <use
             height="100%"
             width="100%"
             y="0"
             x="0"
             style="stroke-linecap:butt;stroke-linejoin:round"
             id="use328"
             xlink:href="#Nimbus_Roman_No9_L_Regular_Italic-86"
             transform="matrix(0.996264,0,0,0.996264,764.72642,14.943915)" />
          <use
             height="100%"
             width="100%"
             y="0"
             x="0"
             style="stroke-linecap:butt;stroke-linejoin:round"
             id="use330"
             xlink:href="#CMR10-41"
             transform="matrix(0.996264,0,0,0.996264,838.24966,14.943915)" />
        </g>
      </g>
      <path
         inkscape:connector-curvature="0"
         id="path336"
         style="fill:none;stroke:#ff0000;stroke-width:1.41732275;stroke-linecap:square;stroke-linejoin:round;stroke-miterlimit:4;stroke-dasharray:none"
         d="m 188.50909,605.02909 6.03833,-0.0721 3.01916,-0.20204 3.01917,-0.41181 3.01916,-0.6879 2.01278,-0.64151 2.01278,-0.80646 2.01277,-0.98577 2.01278,-1.17808 2.01278,-1.382 2.01277,-1.59619 2.01278,-1.81929 2.01277,-2.05002 2.01278,-2.28708 2.01278,-2.52923 3.01916,-4.25599 3.01917,-4.81734 3.01916,-5.38107 3.01917,-5.94182 3.01916,-6.49452 3.01917,-7.03444 3.01916,-7.55723 3.01916,-8.05891 4.02556,-11.48236 4.02555,-12.26244 4.02555,-12.96644 5.03194,-17.07085 5.03195,-17.8665 6.03832,-22.23217 9.0575,-34.29385 13.08304,-49.57776 7.04472,-25.79418 6.03833,-21.20298 5.03194,-16.86386 5.03194,-16.01846 4.02556,-12.14673 4.02555,-11.51309 4.02555,-10.85067 4.02555,-10.16689 4.02556,-9.46902 4.02555,-8.76406 3.01917,-6.10992 3.01916,-5.71522 3.01917,-5.32459 3.01916,-4.93985 3.01916,-4.56268 3.01917,-4.19463 3.01916,-3.83715 3.01917,-3.49154 3.01916,-3.159 3.01917,-2.84055 3.01916,-2.53713 3.01917,-2.24952 3.01916,-1.97835 3.01917,-1.72418 3.01916,-1.48738 3.01916,-1.26824 3.01917,-1.06691 4.02555,-1.14021 4.02556,-0.8561 4.02555,-0.61343 4.02555,-0.41118 5.03194,-0.2888 6.03833,-0.11118 10.06388,0.0928 11.07027,0.0419 7.04472,-0.21396 6.03833,-0.41317 6.03833,-0.66556 5.03194,-0.76515 5.03194,-0.96445 5.03194,-1.1652 5.03194,-1.36221 6.03833,-1.88264 6.03833,-2.13209 6.03833,-2.35268 7.04472,-2.97776 9.05749,-4.10308 14.08944,-6.69174 14.08943,-6.62078 9.0575,-4.00843 8.0511,-3.30671 7.04472,-2.6533 7.04472,-2.40342 7.04471,-2.13815 6.03833,-1.61615 6.03833,-1.41646 7.04472,-1.40612 7.04472,-1.15315 7.04471,-0.9184 7.04472,-0.70619 8.05111,-0.58022 9.05749,-0.41316 10.06388,-0.23274 14.08944,-0.0743 39.24914,-0.0494 15.09582,-0.31639 15.09583,-0.54282 17.1086,-0.84296 29.18525,-1.712077 25.15971,-1.389727 19.12137,-0.83068 18.11499,-0.558215 19.12138,-0.357401 22.14054,-0.181162 35.22359,-0.02631 51.32579,-0.07423 52.3322,-0.346343 61.3897,-0.350147 58.3705,-0.07678 49.313,0.0013 v 0"
         clip-path="url(#p15241815d0)" />
      <path
         inkscape:connector-curvature="0"
         id="path339"
         style="fill:none;stroke:#ff0000;stroke-width:1.41732275;stroke-linecap:square;stroke-linejoin:round;stroke-miterlimit:4;stroke-dasharray:none"
         d="m 188.50909,605.02909 6.03833,-0.0721 3.01916,-0.20204 3.01917,-0.41181 3.01916,-0.6879 2.01278,-0.64151 2.01278,-0.80646 2.01277,-0.98577 2.01278,-1.17808 2.01278,-1.382 2.01277,-1.59619 2.01278,-1.81929 2.01277,-2.05002 2.01278,-2.28708 2.01278,-2.52923 3.01916,-4.25599 3.01917,-4.81734 3.01916,-5.38107 3.01917,-5.94182 3.01916,-6.49452 3.01917,-7.03444 3.01916,-7.55723 3.01916,-8.05891 4.02556,-11.48236 4.02555,-12.26244 4.02555,-12.96644 5.03194,-17.07085 5.03195,-17.8665 6.03832,-22.23217 9.0575,-34.29385 13.08304,-49.57776 7.04472,-25.79418 6.03833,-21.20298 5.03194,-16.86386 5.03194,-16.01846 4.02556,-12.14673 4.02555,-11.51309 4.02555,-10.85067 4.02555,-10.16689 4.02556,-9.46902 4.02555,-8.76406 3.01917,-6.10992 3.01916,-5.71522 3.01917,-5.32459 3.01916,-4.93985 3.01916,-4.56268 3.01917,-4.19463 3.01916,-3.83715 3.01917,-3.49154 3.01916,-3.159 3.01917,-2.84055 3.01916,-2.53713 3.01917,-2.24952 3.01916,-1.97835 3.01917,-1.72418 3.01916,-1.48738 3.01916,-1.26824 3.01917,-1.06691 4.02555,-1.14021 4.02556,-0.8561 4.02555,-0.61343 4.02555,-0.41118 5.03194,-0.2888 6.03833,-0.11118 10.06388,0.0928 11.07027,0.0419 7.04472,-0.21396 6.03833,-0.41317 6.03833,-0.66556 5.03194,-0.76515 5.03194,-0.96445 5.03194,-1.1652 5.03194,-1.36221 6.03833,-1.88264 6.03833,-2.13209 6.03833,-2.35268 7.04472,-2.97776 9.05749,-4.10308 14.08944,-6.69174 14.08943,-6.62078 9.0575,-4.00843 8.0511,-3.30671 7.04472,-2.6533 7.04472,-2.40342 7.04471,-2.13815 6.03833,-1.61615 6.03833,-1.41646 7.04472,-1.40612 7.04472,-1.15315 7.04471,-0.9184 7.04472,-0.70619 8.05111,-0.58022 9.05749,-0.41316 10.06388,-0.23274 14.08944,-0.0743 39.24914,-0.0494 15.09582,-0.31639 15.09583,-0.54282 17.1086,-0.84296 29.18525,-1.712077 25.15971,-1.389727 19.12137,-0.83068 18.11499,-0.558215 19.12138,-0.357401 22.14054,-0.181162 35.22359,-0.02631 51.32579,-0.07423 52.3322,-0.346343 61.3897,-0.350147 58.3705,-0.07678 49.313,0.0013 v 0"
         clip-path="url(#p15241815d0)" />
      <path
         inkscape:connector-curvature="0"
         id="path342"
         style="fill:none;stroke:#ff0000;stroke-width:1.41732275;stroke-linecap:square;stroke-linejoin:round;stroke-miterlimit:4;stroke-dasharray:none"
         d="m 188.50909,605.02909 6.03833,-0.0721 3.01916,-0.20204 3.01917,-0.41181 3.01916,-0.6879 2.01278,-0.64151 2.01278,-0.80646 2.01277,-0.98577 2.01278,-1.17808 2.01278,-1.382 2.01277,-1.59619 2.01278,-1.81929 2.01277,-2.05002 2.01278,-2.28708 2.01278,-2.52923 3.01916,-4.25599 3.01917,-4.81734 3.01916,-5.38107 3.01917,-5.94182 3.01916,-6.49452 3.01917,-7.03444 3.01916,-7.55723 3.01916,-8.05891 4.02556,-11.48236 4.02555,-12.26244 4.02555,-12.96644 5.03194,-17.07085 5.03195,-17.8665 6.03832,-22.23217 9.0575,-34.29385 13.08304,-49.57776 7.04472,-25.79418 6.03833,-21.20298 5.03194,-16.86386 5.03194,-16.01846 4.02556,-12.14673 4.02555,-11.51309 4.02555,-10.85067 4.02555,-10.16689 4.02556,-9.46902 4.02555,-8.76406 3.01917,-6.10992 3.01916,-5.71522 3.01917,-5.32459 3.01916,-4.93985 3.01916,-4.56268 3.01917,-4.19463 3.01916,-3.83715 3.01917,-3.49154 3.01916,-3.159 3.01917,-2.84055 3.01916,-2.53713 3.01917,-2.24952 3.01916,-1.97835 3.01917,-1.72418 3.01916,-1.48738 3.01916,-1.26824 3.01917,-1.06691 4.02555,-1.14021 4.02556,-0.8561 4.02555,-0.61343 4.02555,-0.41118 5.03194,-0.2888 6.03833,-0.11118 10.06388,0.0928 11.07027,0.0419 7.04472,-0.21396 6.03833,-0.41317 6.03833,-0.66556 5.03194,-0.76515 5.03194,-0.96445 5.03194,-1.1652 5.03194,-1.36221 6.03833,-1.88264 6.03833,-2.13209 6.03833,-2.35268 7.04472,-2.97776 9.05749,-4.10308 14.08944,-6.69174 14.08943,-6.62078 9.0575,-4.00843 8.0511,-3.30671 7.04472,-2.6533 7.04472,-2.40342 7.04471,-2.13815 6.03833,-1.61615 6.03833,-1.41646 7.04472,-1.40612 7.04472,-1.15315 7.04471,-0.9184 7.04472,-0.70619 8.05111,-0.58022 9.05749,-0.41316 10.06388,-0.23274 14.08944,-0.0743 39.24914,-0.0494 15.09582,-0.31639 15.09583,-0.54282 17.1086,-0.84296 29.18525,-1.712077 25.15971,-1.389727 19.12137,-0.83068 18.11499,-0.558215 19.12138,-0.357401 22.14054,-0.181162 35.22359,-0.02631 51.32579,-0.07423 52.3322,-0.346343 61.3897,-0.350147 58.3705,-0.07678 49.313,0.0013 v 0"
         clip-path="url(#p15241815d0)" />
      <path
         inkscape:connector-curvature="0"
         id="path345"
         style="fill:none;stroke:#ff0000;stroke-width:1.41732275;stroke-linecap:square;stroke-linejoin:round;stroke-miterlimit:4;stroke-dasharray:none"
         d="m 188.50909,605.02909 6.03833,-0.0721 3.01916,-0.20204 3.01917,-0.41181 3.01916,-0.6879 2.01278,-0.64151 2.01278,-0.80646 2.01277,-0.98577 2.01278,-1.17808 2.01278,-1.382 2.01277,-1.59619 2.01278,-1.81929 2.01277,-2.05002 2.01278,-2.28708 2.01278,-2.52923 3.01916,-4.25599 3.01917,-4.81734 3.01916,-5.38107 3.01917,-5.94182 3.01916,-6.49452 3.01917,-7.03444 3.01916,-7.55723 3.01916,-8.05891 4.02556,-11.48236 4.02555,-12.26244 4.02555,-12.96644 5.03194,-17.07085 5.03195,-17.8665 6.03832,-22.23217 9.0575,-34.29385 13.08304,-49.57776 7.04472,-25.79418 6.03833,-21.20298 5.03194,-16.86386 5.03194,-16.01846 4.02556,-12.14673 4.02555,-11.51309 4.02555,-10.85067 4.02555,-10.16689 4.02556,-9.46902 4.02555,-8.76406 3.01917,-6.10992 3.01916,-5.71522 3.01917,-5.32459 3.01916,-4.93985 3.01916,-4.56268 3.01917,-4.19463 3.01916,-3.83715 3.01917,-3.49154 3.01916,-3.159 3.01917,-2.84055 3.01916,-2.53713 3.01917,-2.24952 3.01916,-1.97835 3.01917,-1.72418 3.01916,-1.48738 3.01916,-1.26824 3.01917,-1.06691 4.02555,-1.14021 4.02556,-0.8561 4.02555,-0.61343 4.02555,-0.41118 5.03194,-0.2888 6.03833,-0.11118 10.06388,0.0928 11.07027,0.0419 7.04472,-0.21396 6.03833,-0.41317 6.03833,-0.66556 5.03194,-0.76515 5.03194,-0.96445 5.03194,-1.1652 5.03194,-1.36221 6.03833,-1.88264 6.03833,-2.13209 6.03833,-2.35268 7.04472,-2.97776 9.05749,-4.10308 14.08944,-6.69174 14.08943,-6.62078 9.0575,-4.00843 8.0511,-3.30671 7.04472,-2.6533 7.04472,-2.40342 7.04471,-2.13815 6.03833,-1.61615 6.03833,-1.41646 7.04472,-1.40612 7.04472,-1.15315 7.04471,-0.9184 7.04472,-0.70619 8.05111,-0.58022 9.05749,-0.41316 10.06388,-0.23274 14.08944,-0.0743 39.24914,-0.0494 15.09582,-0.31639 15.09583,-0.54282 17.1086,-0.84296 29.18525,-1.712077 25.15971,-1.389727 19.12137,-0.83068 18.11499,-0.558215 19.12138,-0.357401 22.14054,-0.181162 35.22359,-0.02631 51.32579,-0.07423 52.3322,-0.346343 61.3897,-0.350147 58.3705,-0.07678 49.313,0.0013 v 0"
         clip-path="url(#p15241815d0)" />
      <path
         inkscape:connector-curvature="0"
         id="path348"
         style="fill:none;stroke:#000000;stroke-width:1.41732275;stroke-linecap:square;stroke-linejoin:miter;stroke-miterlimit:4;stroke-dasharray:none"
         d="M 138.24,630.504 V 70.056" />
      <path
         inkscape:connector-curvature="0"
         id="path351"
         style="fill:none;stroke:#000000;stroke-width:1.41732275;stroke-linecap:square;stroke-linejoin:miter;stroke-miterlimit:4;stroke-dasharray:none"
         d="M 1244.16,630.504 V 70.056" />
      <path
         inkscape:connector-curvature="0"
         id="path354"
         style="fill:none;stroke:#000000;stroke-width:1.41732275;stroke-linecap:square;stroke-linejoin:miter;stroke-miterlimit:4;stroke-dasharray:none"
         d="M 138.24,630.504 H 1244.16" />
      <path
         inkscape:connector-curvature="0"
         id="path357"
         style="fill:none;stroke:#000000;stroke-width:1.41732275;stroke-linecap:square;stroke-linejoin:miter;stroke-miterlimit:4;stroke-dasharray:none"
         d="M 138.24,70.056 H 1244.16" />
      <text
         xml:space="preserve"
         style="font-style:normal;font-weight:normal;font-size:30px;line-height:1.25;font-family:sans-serif;letter-spacing:0px;word-spacing:0px;fill:#000000;fill-opacity:1;stroke:none;stroke-width:0.75;stroke-linecap:butt;stroke-linejoin:round"
         x="447.73871"
         y="47.593258"
         id="text1733"><tspan
           sodipodi:role="line"
           style="font-style:normal;font-variant:normal;font-weight:normal;font-stretch:normal;font-family:TImes;-inkscape-font-specification:TImes;stroke-width:0.75;stroke-linecap:butt;stroke-linejoin:round"
           x="447.73871"
           y="47.593258"
           id="tspan1735">Open-loop uk converter voltage output</tspan></text>
      <g
         id="line2d_1"
         style="stroke:#390000;stroke-width:1.41732275;stroke-linecap:butt;stroke-linejoin:round;stroke-miterlimit:4;stroke-dasharray:none;stroke-opacity:1">
        <path
           clip-path="url(#p15241815d0)"
           d="M 188.50909,630.504 V 77.760459"
           style="fill:none;stroke:#390000;stroke-width:1.41732275;stroke-linecap:square;stroke-linejoin:round;stroke-miterlimit:4;stroke-dasharray:none;stroke-opacity:1;marker-end:url(#Arrow2Mend)"
           id="path12"
           inkscape:connector-curvature="0"
           sodipodi:nodetypes="cc" />
      </g>
      <g
         id="line2d_13"
         style="stroke-width:1.41732275;stroke-linecap:butt;stroke-linejoin:round;stroke-miterlimit:4;stroke-dasharray:none">
        <path
           clip-path="url(#p15241815d0)"
           d="M 138.24,605.02909 H 1238.7121"
           style="fill:none;stroke:#000000;stroke-width:1.41732275;stroke-linecap:square;stroke-linejoin:round;stroke-miterlimit:4;stroke-dasharray:none;stroke-opacity:1;marker-end:url(#marker2093)"
           id="path172"
           inkscape:connector-curvature="0"
           sodipodi:nodetypes="cc" />
      </g>
    </g>
  </g>
  <defs
     id="defs498">
    <clipPath
       id="p15241815d0"
       style="stroke-linecap:butt;stroke-linejoin:round">
      <rect
         height="560.448"
         width="1105.92"
         x="138.24001"
         y="70.056"
         id="rect495"
         style="stroke-linecap:butt;stroke-linejoin:round" />
    </clipPath>
  </defs>
</svg>
